<svg width="74" height="27" viewBox="0 0 74 27" fill="none" xmlns="http://www.w3.org/2000/svg">
<path d="M39.5412 8.67831L38.8348 9.38612L39.5412 8.67831ZM19.5294 22.1982L18.6525 22.6789L19.5294 22.1982ZM46.5 3.5L46.3301 4.48546L46.5 3.5ZM70.311 17.482C70.8533 17.5864 71.3776 17.2313 71.482 16.689L73.1829 7.85119C73.2873 7.30885 72.9323 6.78459 72.3899 6.68021C71.8476 6.57584 71.3233 6.93087 71.219 7.4732L69.707 15.329L61.8512 13.8171C61.3089 13.7127 60.7846 14.0677 60.6802 14.6101C60.5758 15.1524 60.9309 15.6767 61.4732 15.781L70.311 17.482ZM4.39923 7.44405C4.86313 7.14436 4.99626 6.52535 4.69658 6.06145C4.3969 5.59754 3.77788 5.46441 3.31398 5.7641L4.39923 7.44405ZM9.75952 2.43C9.24706 2.63591 8.99855 3.21827 9.20446 3.73073C9.41037 4.2432 9.99273 4.4917 10.5052 4.28579L9.75952 2.43ZM17.0872 2.39753C17.6316 2.30427 17.9973 1.78738 17.904 1.24302C17.8107 0.69867 17.2938 0.33299 16.7495 0.426253L17.0872 2.39753ZM24.0556 0.1084C23.5055 0.0582801 23.0191 0.463518 22.9689 1.01352C22.9188 1.56353 23.324 2.05003 23.8741 2.10015L24.0556 0.1084ZM30.435 3.68944C30.9464 3.89776 31.53 3.652 31.7383 3.14051C31.9466 2.62902 31.7008 2.0455 31.1894 1.83718L30.435 3.68944ZM37.5164 5.54384C37.0821 5.20268 36.4534 5.27819 36.1123 5.71251C35.7711 6.14682 35.8466 6.77547 36.2809 7.11663L37.5164 5.54384ZM41.0224 11.8338C41.362 12.2693 41.9904 12.3471 42.4259 12.0075C42.8614 11.6679 42.9392 11.0395 42.5996 10.604L41.0224 11.8338ZM45.5432 17.2152C45.5077 16.664 45.0322 16.246 44.481 16.2815C43.9299 16.317 43.5119 16.7926 43.5474 17.3437L45.5432 17.2152ZM40.9502 22.1647C40.5007 22.4856 40.3964 23.1101 40.7173 23.5596C41.0382 24.0091 41.6628 24.1134 42.1122 23.7925L40.9502 22.1647ZM35.4947 26.4617C36.0357 26.3509 36.3845 25.8224 36.2737 25.2814C36.1628 24.7403 35.6344 24.3916 35.0933 24.5024L35.4947 26.4617ZM28.6217 24.9567C28.0704 24.9238 27.5968 25.344 27.5639 25.8953C27.531 26.4466 27.9512 26.9202 28.5025 26.9532L28.6217 24.9567ZM21.564 25.2949C22.0556 25.5468 22.6582 25.3525 22.91 24.861C23.1619 24.3694 22.9676 23.7668 22.476 23.515L21.564 25.2949ZM19.7552 17.6396C19.8388 17.0937 19.4641 16.5833 18.9182 16.4996C18.3723 16.4159 17.8619 16.7907 17.7783 17.3366L19.7552 17.6396ZM23.064 8.59736C22.6518 8.96496 22.6157 9.59709 22.9833 10.0093C23.3509 10.4214 23.983 10.4576 24.3952 10.09L23.064 8.59736ZM32.4293 5.48994C32.952 5.31141 33.2309 4.743 33.0524 4.22037C32.8738 3.69773 32.3054 3.41879 31.7828 3.59732L32.4293 5.48994ZM41.6781 2.04937C41.1258 2.042 40.6722 2.48371 40.6648 3.03595C40.6574 3.58818 41.0992 4.04183 41.6514 4.04919L41.6781 2.04937ZM49.6686 5.18949C50.2043 5.32366 50.7474 4.99812 50.8816 4.46237C51.0157 3.92663 50.6902 3.38357 50.1544 3.2494L49.6686 5.18949ZM56.9031 5.50583C56.3947 5.2901 55.8076 5.52735 55.5919 6.03576C55.3762 6.54417 55.6134 7.1312 56.1218 7.34693L56.9031 5.50583ZM62.1381 10.5006C62.6042 10.7969 63.2222 10.6593 63.5185 10.1932C63.8148 9.72715 63.6772 9.10912 63.2111 8.81282L62.1381 10.5006ZM68.8673 13.186C68.4669 12.8055 67.834 12.8217 67.4535 13.222C67.0731 13.6224 67.0892 14.2553 67.4896 14.6358L68.8673 13.186ZM1.63542 9.45047C2.42169 8.80344 3.35008 8.12179 4.39923 7.44405L3.31398 5.7641C2.20442 6.48087 1.21363 7.20745 0.364579 7.90614L1.63542 9.45047ZM10.5052 4.28579C12.5517 3.46348 14.7695 2.79462 17.0872 2.39753L16.7495 0.426253C14.2744 0.850312 11.9198 1.562 9.75952 2.43L10.5052 4.28579ZM23.8741 2.10015C26.0486 2.2983 28.2511 2.79998 30.435 3.68944L31.1894 1.83718C28.8111 0.868564 26.4144 0.323347 24.0556 0.1084L23.8741 2.10015ZM36.2809 7.11663C37.1416 7.79269 37.994 8.54707 38.8348 9.38612L40.2476 7.97049C39.3525 7.07725 38.441 6.27017 37.5164 5.54384L36.2809 7.11663ZM38.8348 9.38612C39.6929 10.2426 40.4178 11.0585 41.0224 11.8338L42.5996 10.604C41.9374 9.7547 41.156 8.87706 40.2476 7.97049L38.8348 9.38612ZM43.5474 17.3437C43.674 19.3101 42.7151 20.9048 40.9502 22.1647L42.1122 23.7925C44.2721 22.2506 45.7261 20.0554 45.5432 17.2152L43.5474 17.3437ZM35.0933 24.5024C32.9902 24.9332 30.7379 25.0831 28.6217 24.9567L28.5025 26.9532C30.7875 27.0896 33.215 26.9287 35.4947 26.4617L35.0933 24.5024ZM22.476 23.515C21.4517 22.9902 20.7661 22.3738 20.4063 21.7175L18.6525 22.6789C19.2687 23.8029 20.3241 24.6596 21.564 25.2949L22.476 23.515ZM20.4063 21.7175C19.7371 20.4967 19.5295 19.1118 19.7552 17.6396L17.7783 17.3366C17.4943 19.1892 17.7471 21.0273 18.6525 22.6789L20.4063 21.7175ZM24.3952 10.09C26.5 8.21279 29.2304 6.5827 32.4293 5.48994L31.7828 3.59732C28.3419 4.77275 25.3762 6.53517 23.064 8.59736L24.3952 10.09ZM41.6514 4.04919C43.1642 4.06936 44.7269 4.20905 46.3301 4.48546L46.6699 2.51454C44.9632 2.22028 43.2958 2.07094 41.6781 2.04937L41.6514 4.04919ZM46.3301 4.48546C47.4854 4.68465 48.5982 4.92144 49.6686 5.18949L50.1544 3.2494C49.0364 2.96942 47.8749 2.72229 46.6699 2.51454L46.3301 4.48546ZM56.1218 7.34693C58.4106 8.31815 60.4162 9.40594 62.1381 10.5006L63.2111 8.81282C61.4023 7.66286 59.2994 6.52269 56.9031 5.50583L56.1218 7.34693ZM67.4896 14.6358C68.6361 15.7252 69.3564 16.5947 69.672 17.0607L71.328 15.9393C70.9055 15.3153 70.0775 14.336 68.8673 13.186L67.4896 14.6358Z" fill="url(#paint0_linear_910_103)"/>
<defs>
<linearGradient id="paint0_linear_910_103" x1="3.22353" y1="3.65663" x2="63.1399" y2="17.2238" gradientUnits="userSpaceOnUse">
<stop stop-color="#080DCC" stop-opacity="0"/>
<stop offset="1" stop-color="#080DCC"/>
</linearGradient>
</defs>
</svg>
