<svg width="592" height="102" viewBox="0 0 592 102" fill="none" xmlns="http://www.w3.org/2000/svg">
<path d="M25.8125 100.187C21.2812 100.187 19.0156 96.7964 19.0156 90.0151C19.0156 86.6401 19.6562 81.8433 20.9375 75.6245C21.9062 70.5933 23.0781 65.6089 24.4531 60.6714C25.8594 55.7339 27.9531 49.062 30.7344 40.6558L31.25 39.1558C31.8125 37.4995 32.4062 35.6089 33.0312 33.4839C33.625 31.4839 33.9219 29.8589 33.9219 28.6089L32.4688 29.7808C29.25 32.3433 24.5938 37.3745 18.5 44.8745L11.9844 52.7964C9.76562 55.5151 8.20312 57.3745 7.29688 58.3745C5.54688 60.2495 4.09375 61.187 2.9375 61.187C2.6875 61.187 2.39062 61.1089 2.04688 60.9526C1.01562 60.5464 0.5 59.4214 0.5 57.5776C0.5 56.6714 0.625 55.5933 0.875 54.3433C1.71875 49.562 3.1875 43.5151 5.28125 36.2026C5.625 34.9526 5.79688 34.2339 5.79688 34.0464C5.79688 33.8589 5.625 33.687 5.28125 33.5308C4.9375 33.3745 4.64062 33.0933 4.39062 32.687C4.14062 32.2495 4.01562 31.812 4.01562 31.3745C4.01562 30.3433 4.79688 28.1089 6.35938 24.6714C7.35938 22.5151 8.35938 20.5464 9.35938 18.7651C10.3594 16.9526 11.1094 15.7651 11.6094 15.2026C11.9219 14.8589 12.1719 14.6401 12.3594 14.5464C12.5469 14.4526 12.8125 14.4058 13.1562 14.4058C14.4062 14.4058 15.0312 15.0776 15.0312 16.4214C15.0312 17.5776 14.6406 19.0464 13.8594 20.8276L13.625 21.4839C9.4375 33.2651 6.375 43.7808 4.4375 53.0308C4.03125 55.062 3.82812 56.3433 3.82812 56.8745C3.82812 57.0933 3.875 57.2026 3.96875 57.2026C4.3125 57.2026 8.26562 52.5308 15.8281 43.187C19.6406 38.4995 22.7969 34.8901 25.2969 32.3589C30.1406 27.4214 33.3906 24.9526 35.0469 24.9526C36.1094 24.9526 36.6406 25.9683 36.6406 27.9995C36.6406 30.7183 35.4219 35.562 32.9844 42.5308L32.9375 42.6714C26.7812 60.9526 23.1094 74.6558 21.9219 83.7808C21.6406 85.687 21.5 87.9058 21.5 90.437C21.5 92.187 21.6094 93.4995 21.8281 94.3745C22.4531 96.812 23.7188 98.0308 25.625 98.0308C27.375 98.0308 29.6094 96.6401 32.3281 93.8589C35.0469 91.1089 38.6406 86.3745 43.1094 79.6558C50.2031 68.9058 57.6406 55.812 65.4219 40.3745C69.7031 31.8745 73.4062 23.2808 76.5312 14.5933C78.0938 10.187 78.875 7.07764 78.875 5.26514C78.875 4.92139 78.7031 4.64014 78.3594 4.42139C77.7656 3.85889 77.4688 3.24951 77.4688 2.59326C77.4688 2.40576 77.5469 2.04639 77.7031 1.51514C77.8594 0.952637 78.4375 0.671387 79.4375 0.671387C80.2188 0.671387 80.8125 1.03076 81.2188 1.74951C81.5625 2.34326 81.7344 3.03076 81.7344 3.81201C81.7344 5.46826 80.5781 9.39014 78.2656 15.5776C76.2969 20.7964 73.9062 26.4683 71.0938 32.5933C64.25 47.0308 57.4531 59.8901 50.7031 71.1714C40.6406 87.8276 33.3281 97.2339 28.7656 99.3901C27.7969 99.8589 26.8125 100.125 25.8125 100.187ZM66.3594 66.7183C66.0156 66.7183 65.6719 66.687 65.3281 66.6245C63.2031 66.2495 61.9531 65.1245 61.5781 63.2495V62.8745C61.5781 60.7808 62.6094 58.4526 64.6719 55.8901C66.7344 53.3276 68.9375 51.7339 71.2812 51.1089L71.6562 51.062C71.9062 51.062 72.2344 51.2026 72.6406 51.4839C73.7031 52.1714 74.2344 53.2495 74.2344 54.7183C74.2344 55.6558 73.9219 56.7808 73.2969 58.0933C72.7031 59.3745 71.8281 60.4839 70.6719 61.4214C70.1406 61.7964 69.6719 61.9839 69.2656 61.9839C68.7031 61.9839 68.2188 61.6714 67.8125 61.0464C67.7188 60.8901 67.6406 60.7183 67.5781 60.5308C67.5469 60.3433 67.5156 60.0933 67.4844 59.7808C67.4844 59.4683 67.4844 59.0308 67.4844 58.4683V57.6714C67.4844 56.6089 67.3906 56.0776 67.2031 56.0776C67.0781 56.0776 66.9219 56.1714 66.7344 56.3589C65.6406 57.4214 64.7656 58.7183 64.1094 60.2495C63.6094 61.3433 63.3594 62.2339 63.3594 62.9214C63.3594 64.1714 64.5 64.7964 66.7812 64.7964C69.0312 64.7964 71.9375 63.7495 75.5 61.6558C77.875 60.2808 80.0312 58.7964 81.9688 57.2026C83.7188 55.7026 84.7188 54.5776 84.9688 53.8276C85.0938 53.5464 85.2344 53.2808 85.3906 53.0308C85.7031 52.5308 86.1875 52.2808 86.8438 52.2808C87.2188 52.2808 87.7188 52.437 88.3438 52.7495C89.0625 53.1245 89.4219 53.7026 89.4219 54.4839C89.4219 55.1714 88.8438 55.8276 87.6875 56.4526C87.1562 56.7026 85.8125 57.5151 83.6562 58.8901C77.25 63.2026 72.4688 65.6558 69.3125 66.2495C68.0625 66.562 67.0781 66.7183 66.3594 66.7183ZM70.25 58.6558C71.5625 56.9995 72.2188 55.5464 72.2188 54.2964C72.2188 53.6089 72.0469 53.2651 71.7031 53.2651C71.4531 53.2651 71.3281 53.4839 71.3281 53.9214L71.375 55.0464C71.375 55.5151 71.2344 55.9839 70.9531 56.4526C70.6406 57.0464 70.4531 57.562 70.3906 57.9995L70.25 58.6558ZM88.0156 48.9995C88.4531 47.9683 88.9531 46.812 89.5156 45.5308C90.0781 44.2183 90.5938 43.0308 91.0625 41.9683C91.1562 41.7495 91.2344 41.5464 91.2969 41.3589L92.8906 37.6089L92.4688 37.0464C91.5625 35.8589 91.6562 34.6558 92.75 33.437C94.25 31.8433 95.5625 31.6245 96.6875 32.7808C96.9688 33.062 97.1094 33.3901 97.1094 33.7651C97.1406 34.1401 97.0156 34.687 96.7344 35.4058C96.4531 36.1245 95.9844 37.1245 95.3281 38.4058C93.3906 42.2495 91.2656 46.7339 88.9531 51.8589C86.6406 56.9526 84.5781 62.1089 82.7656 67.3276C80.9219 72.5151 79.7812 77.2026 79.3438 81.3901L79.1094 83.5933L80 84.5308C80.3438 84.9058 80.5781 85.187 80.7031 85.3745C80.7969 85.5933 80.8438 85.8745 80.8438 86.2183C80.8438 87.0308 80.5781 87.6089 80.0469 87.9526C79.5156 88.3276 78.875 88.3901 78.125 88.1401C76.875 87.6089 76.25 86.2808 76.25 84.1558C76.3438 81.4058 77.0938 77.8589 78.5 73.5151C79.875 69.1401 81.4688 64.7183 83.2812 60.2495C85.0938 55.7808 86.6719 52.0308 88.0156 48.9995ZM92.8906 68.312C92.3594 68.312 91.9375 68.2651 91.625 68.1714C89.8438 67.4526 88.9531 65.9526 88.9531 63.6714C88.9531 61.8276 89.5625 59.7183 90.7812 57.3433C91.7812 55.4058 93.0938 53.6089 94.7188 51.9526C96.3438 50.2651 97.9531 49.0308 99.5469 48.2495C100.391 47.8433 101.109 47.6401 101.703 47.6401C102.578 47.6401 103.203 48.0776 103.578 48.9526C103.672 49.2339 103.719 49.562 103.719 49.937C103.719 50.9683 103.406 52.1714 102.781 53.5464C102.156 54.8901 101.344 55.562 100.344 55.562C99.8438 55.562 99.3906 55.3589 98.9844 54.9526C98.7031 54.7026 98.5156 54.4839 98.4219 54.2964C98.3594 54.1089 98.3281 53.8276 98.3281 53.4526C98.3281 53.1089 98.375 52.8276 98.4688 52.6089C98.5938 52.3901 98.8594 52.062 99.2656 51.6245C99.8594 50.9683 100.156 50.5933 100.156 50.4995L100.109 50.4526C99.9844 50.4526 99.5625 50.687 98.8438 51.1558C95.8438 53.1245 93.5469 55.7651 91.9531 59.0776C91.0781 60.9214 90.6406 62.5151 90.6406 63.8589C90.6406 65.8276 91.5469 66.812 93.3594 66.812C96.2656 66.812 100.766 64.8433 106.859 60.9058C109.109 59.437 110.859 58.1401 112.109 57.0151C112.703 56.4839 113.016 56.1245 113.047 55.937C113.047 55.8433 113.016 55.7183 112.953 55.562C112.859 55.2808 112.812 55.0151 112.812 54.7651C112.812 54.3589 112.953 53.9526 113.234 53.5464C113.547 53.1089 114.047 52.8901 114.734 52.8901C115.609 52.8901 116.203 53.2808 116.516 54.062C116.609 54.312 116.656 54.562 116.656 54.812C116.656 55.2808 116.453 55.7339 116.047 56.1714C114.703 57.2964 111.906 59.2651 107.656 62.0776C101.344 66.2339 96.4219 68.312 92.8906 68.312ZM111.828 72.9995C110.703 72.9995 109.875 72.4683 109.344 71.4058C108.906 70.562 108.672 69.5776 108.641 68.4526C108.641 66.2339 109.281 63.5464 110.562 60.3901C111.969 56.8276 113.75 54.1558 115.906 52.3745C116.812 51.6245 117.75 51.2495 118.719 51.2495C119.938 51.2495 121.031 51.9214 122 53.2651C122.562 54.1089 122.906 55.0151 123.031 55.9839C123.125 56.6714 123.234 57.0151 123.359 57.0151C123.516 57.0151 123.859 56.937 124.391 56.7808C126.984 55.9683 128.438 55.1558 128.75 54.3433C129.219 53.3745 129.891 52.8901 130.766 52.8901C131.484 52.8901 132.078 53.2651 132.547 54.0151C132.672 54.2964 132.734 54.5776 132.734 54.8589C132.734 55.8901 132.047 56.562 130.672 56.8745C129.984 57.0308 128.391 57.5308 125.891 58.3745C125.266 58.5933 124.75 58.7339 124.344 58.7964C123.531 58.9839 123.047 59.1245 122.891 59.2183C122.703 59.5933 122.562 59.9839 122.469 60.3901C122.188 61.2339 121.719 62.2964 121.062 63.5776C119.969 65.6401 118.875 67.3433 117.781 68.687C115.375 71.562 113.391 72.9995 111.828 72.9995ZM111.922 70.7964C112.328 70.7964 112.828 70.5776 113.422 70.1401C114.609 69.2651 115.906 67.812 117.312 65.7808C118.719 63.7183 119.766 61.7964 120.453 60.0151L120.688 59.312C119.188 59.0933 118 58.5933 117.125 57.812C116.812 57.4683 116.531 57.2964 116.281 57.2964C116.031 57.2964 115.609 57.7339 115.016 58.6089C113.703 60.6089 112.688 62.5776 111.969 64.5151C111.344 66.1401 111.031 67.6245 111.031 68.9683C111.031 70.187 111.328 70.7964 111.922 70.7964ZM120.922 56.312C120.984 56.312 121.016 56.2808 121.016 56.2183C121.016 56.0308 120.875 55.7651 120.594 55.4214C120.062 54.8276 119.672 54.5308 119.422 54.5308C119.297 54.5308 119.234 54.5776 119.234 54.6714C119.234 55.1401 119.562 55.5776 120.219 55.9839C120.562 56.2026 120.797 56.312 120.922 56.312ZM154.906 64.3276C153.781 64.3276 152.781 63.9995 151.906 63.3433C151.062 62.562 150.594 61.562 150.5 60.3433C150.5 58.812 150.562 57.5308 150.688 56.4995L150.828 54.812C150.828 54.4683 150.797 54.2651 150.734 54.2026C150.672 54.1401 150.547 54.1089 150.359 54.1089C149.359 54.3276 147.547 55.7183 144.922 58.2808C142.328 60.812 140.625 62.0776 139.812 62.0776L139.531 62.0308C139 61.812 138.734 60.4839 138.734 58.0464C138.734 56.4526 138.672 55.5933 138.547 55.4683C138.547 55.3745 138.5 55.3276 138.406 55.3276C137.938 55.3276 136.5 56.4995 134.094 58.8433C133.844 59.0933 133.594 59.3745 133.344 59.687C132.188 61.062 131.219 61.7495 130.438 61.7495L130.109 61.7026C129.297 61.5151 128.891 61.0151 128.891 60.2026C128.891 59.7964 128.938 59.3276 129.031 58.7964L129.688 54.2964C129.812 53.2339 129.969 52.5151 130.156 52.1401C130.469 51.3901 131.109 51.0151 132.078 51.0151C133.016 51.0151 133.641 51.4995 133.953 52.4683C134.047 52.687 134.094 52.8745 134.094 53.0308C134.094 53.2183 133.906 53.7183 133.531 54.5308C132.75 56.0933 132.359 57.0308 132.359 57.3433V57.3901C132.453 57.3901 133.078 56.8901 134.234 55.8901C136.203 54.1089 137.719 53.2183 138.781 53.2183C139.781 53.2183 140.375 53.9839 140.562 55.5151C140.625 55.8901 140.672 56.3276 140.703 56.8276C140.703 57.3276 140.688 57.7808 140.656 58.187V59.5933C140.812 59.5933 141.391 59.062 142.391 57.9995C146.516 53.7183 149.406 51.5776 151.062 51.5776C152.281 51.5776 152.891 52.4214 152.891 54.1089C152.891 54.8901 152.812 55.8745 152.656 57.062C152.531 58.0308 152.469 58.9214 152.469 59.7339V60.2495C152.469 61.8745 153.188 62.687 154.625 62.687C155.375 62.687 156.484 62.4214 157.953 61.8901C159.422 61.3589 160.984 60.4995 162.641 59.312C164.297 58.1245 165.281 56.9683 165.594 55.8433C166.031 54.2808 166.844 53.4995 168.031 53.4995C168.531 53.4995 168.953 53.6714 169.297 54.0151C169.484 54.2339 169.578 54.4839 169.578 54.7651C169.578 55.4839 169.219 56.0464 168.5 56.4526C168.25 56.5776 168.016 56.7495 167.797 56.9683C166.828 57.9995 165.359 59.2339 163.391 60.6714C161.453 62.1089 159.422 63.187 157.297 63.9058C156.453 64.187 155.656 64.3276 154.906 64.3276ZM167.797 66.7183C167.453 66.7183 167.109 66.687 166.766 66.6245C164.641 66.2495 163.391 65.1245 163.016 63.2495V62.8745C163.016 60.7808 164.047 58.4526 166.109 55.8901C168.172 53.3276 170.375 51.7339 172.719 51.1089L173.094 51.062C173.344 51.062 173.672 51.2026 174.078 51.4839C175.141 52.1714 175.672 53.2495 175.672 54.7183C175.672 55.6558 175.359 56.7808 174.734 58.0933C174.141 59.3745 173.266 60.4839 172.109 61.4214C171.578 61.7964 171.109 61.9839 170.703 61.9839C170.141 61.9839 169.656 61.6714 169.25 61.0464C169.156 60.8901 169.078 60.7183 169.016 60.5308C168.984 60.3433 168.953 60.0933 168.922 59.7808C168.922 59.4683 168.922 59.0308 168.922 58.4683V57.6714C168.922 56.6089 168.828 56.0776 168.641 56.0776C168.516 56.0776 168.359 56.1714 168.172 56.3589C167.078 57.4214 166.203 58.7183 165.547 60.2495C165.047 61.3433 164.797 62.2339 164.797 62.9214C164.797 64.1714 165.938 64.7964 168.219 64.7964C170.469 64.7964 173.375 63.7495 176.938 61.6558C179.312 60.2808 181.469 58.7964 183.406 57.2026C185.156 55.7026 186.156 54.5776 186.406 53.8276C186.531 53.5464 186.672 53.2808 186.828 53.0308C187.141 52.5308 187.625 52.2808 188.281 52.2808C188.656 52.2808 189.156 52.437 189.781 52.7495C190.5 53.1245 190.859 53.7026 190.859 54.4839C190.859 55.1714 190.281 55.8276 189.125 56.4526C188.594 56.7026 187.25 57.5151 185.094 58.8901C178.688 63.2026 173.906 65.6558 170.75 66.2495C169.5 66.562 168.516 66.7183 167.797 66.7183ZM171.688 58.6558C173 56.9995 173.656 55.5464 173.656 54.2964C173.656 53.6089 173.484 53.2651 173.141 53.2651C172.891 53.2651 172.766 53.4839 172.766 53.9214L172.812 55.0464C172.812 55.5151 172.672 55.9839 172.391 56.4526C172.078 57.0464 171.891 57.562 171.828 57.9995L171.688 58.6558ZM193.391 89.4526C193.078 89.4526 192.75 89.3433 192.406 89.1245C192.031 88.9058 191.781 88.6558 191.656 88.3745C191.531 88.0933 191.469 87.6558 191.469 87.062C191.469 86.4683 191.656 85.2026 192.031 83.2651C192.406 81.3589 192.797 79.687 193.203 78.2495L193.578 77.0308C194.797 72.3433 196.297 67.4683 198.078 62.4058C198.609 60.9683 198.875 60.1089 198.875 59.8276C199.188 58.4214 200.219 55.7183 201.969 51.7183L204.172 46.3276C204.922 44.4839 205.297 43.4683 205.297 43.2808C205.297 43.2183 205.234 43.187 205.109 43.187C204.922 43.187 204.484 43.2651 203.797 43.4214C202.109 43.7651 200.188 44.2339 198.031 44.8276C195.875 45.4214 194.516 45.937 193.953 46.3745C193.641 46.5933 193.484 46.8745 193.484 47.2183C193.484 47.562 193.328 47.9058 193.016 48.2495C192.516 48.812 191.922 49.0933 191.234 49.0933C190.797 49.0933 190.359 48.9214 189.922 48.5776C189.484 48.2339 189.266 47.687 189.266 46.937C189.266 45.4995 190.453 44.4058 192.828 43.6558C194.984 42.9058 198.469 42.0464 203.281 41.0776C205.375 40.6401 206.516 40.3745 206.703 40.2808C207.328 39.0308 207.828 37.9839 208.203 37.1401C209.578 34.2339 210.562 32.5308 211.156 32.0308C211.5 31.7495 211.891 31.6089 212.328 31.6089C213.484 31.6089 214.062 32.312 214.062 33.7183L213.969 34.7026C213.656 36.6714 212.766 37.7183 211.297 37.8433C210.953 37.8745 210.688 37.9526 210.5 38.0776C210.344 38.2026 210.172 38.4526 209.984 38.8276C209.859 39.0776 209.766 39.2808 209.703 39.437C209.641 39.562 209.609 39.6558 209.609 39.7183C209.609 39.7495 209.656 39.7651 209.75 39.7651C210.219 39.7651 211.328 39.6245 213.078 39.3433L216.641 38.8276C217.859 38.6714 220.766 38.4683 225.359 38.2183C226.891 38.1245 228.078 38.0776 228.922 38.0776C229.172 38.0776 229.391 38.0933 229.578 38.1245C229.797 38.1558 229.984 38.2183 230.141 38.312C230.484 38.4995 230.766 38.7808 230.984 39.1558C231.234 39.4995 231.359 39.8276 231.359 40.1401C231.359 40.8589 231.109 41.4214 230.609 41.8276C230.141 42.2339 229.531 42.437 228.781 42.437C228.344 42.437 227.938 42.3589 227.562 42.2026C225.469 41.7339 223.156 41.4995 220.625 41.4995C218.5 41.4995 215.781 41.687 212.469 42.062C209.688 42.4058 208.203 42.6714 208.016 42.8589C207.703 43.2339 206.922 44.8901 205.672 47.8276L204.594 50.4058C204.156 51.3433 203.75 52.3901 203.375 53.5464C202.688 55.4214 202.125 56.8901 201.688 57.9526C199.844 62.9526 198.328 67.687 197.141 72.1558C195.703 77.4683 194.984 81.4214 194.984 84.0151C194.984 84.6401 195.094 85.2339 195.312 85.7964C195.531 86.3589 195.641 86.8589 195.641 87.2964C195.641 87.6401 195.516 87.9995 195.266 88.3745C194.984 88.7808 194.672 89.062 194.328 89.2183C193.953 89.3745 193.641 89.4526 193.391 89.4526ZM205.953 72.9995C204.828 72.9995 204 72.4683 203.469 71.4058C203.031 70.562 202.797 69.5776 202.766 68.4526C202.766 66.2339 203.406 63.5464 204.688 60.3901C206.094 56.8276 207.875 54.1558 210.031 52.3745C210.938 51.6245 211.875 51.2495 212.844 51.2495C214.062 51.2495 215.156 51.9214 216.125 53.2651C216.688 54.1089 217.031 55.0151 217.156 55.9839C217.25 56.6714 217.359 57.0151 217.484 57.0151C217.641 57.0151 217.984 56.937 218.516 56.7808C221.109 55.9683 222.562 55.1558 222.875 54.3433C223.344 53.3745 224.016 52.8901 224.891 52.8901C225.609 52.8901 226.203 53.2651 226.672 54.0151C226.797 54.2964 226.859 54.5776 226.859 54.8589C226.859 55.8901 226.172 56.562 224.797 56.8745C224.109 57.0308 222.516 57.5308 220.016 58.3745C219.391 58.5933 218.875 58.7339 218.469 58.7964C217.656 58.9839 217.172 59.1245 217.016 59.2183C216.828 59.5933 216.688 59.9839 216.594 60.3901C216.312 61.2339 215.844 62.2964 215.188 63.5776C214.094 65.6401 213 67.3433 211.906 68.687C209.5 71.562 207.516 72.9995 205.953 72.9995ZM206.047 70.7964C206.453 70.7964 206.953 70.5776 207.547 70.1401C208.734 69.2651 210.031 67.812 211.438 65.7808C212.844 63.7183 213.891 61.7964 214.578 60.0151L214.812 59.312C213.312 59.0933 212.125 58.5933 211.25 57.812C210.938 57.4683 210.656 57.2964 210.406 57.2964C210.156 57.2964 209.734 57.7339 209.141 58.6089C207.828 60.6089 206.812 62.5776 206.094 64.5151C205.469 66.1401 205.156 67.6245 205.156 68.9683C205.156 70.187 205.453 70.7964 206.047 70.7964ZM215.047 56.312C215.109 56.312 215.141 56.2808 215.141 56.2183C215.141 56.0308 215 55.7651 214.719 55.4214C214.188 54.8276 213.797 54.5308 213.547 54.5308C213.422 54.5308 213.359 54.5776 213.359 54.6714C213.359 55.1401 213.688 55.5776 214.344 55.9839C214.688 56.2026 214.922 56.312 215.047 56.312ZM230.141 89.4526C229.828 89.4526 229.5 89.3433 229.156 89.1245C228.781 88.9058 228.531 88.6558 228.406 88.3745C228.281 88.0933 228.219 87.6558 228.219 87.062C228.219 86.4683 228.406 85.2026 228.781 83.2651C229.156 81.3589 229.547 79.687 229.953 78.2495L230.328 77.0308C231.547 72.3433 233.047 67.4683 234.828 62.4058C235.359 60.9683 235.625 60.1089 235.625 59.8276C235.938 58.4214 236.969 55.7183 238.719 51.7183L240.922 46.3276C241.672 44.4839 242.047 43.4683 242.047 43.2808C242.047 43.2183 241.984 43.187 241.859 43.187C241.672 43.187 241.234 43.2651 240.547 43.4214C238.859 43.7651 236.938 44.2339 234.781 44.8276C232.625 45.4214 231.266 45.937 230.703 46.3745C230.391 46.5933 230.234 46.8745 230.234 47.2183C230.234 47.562 230.078 47.9058 229.766 48.2495C229.266 48.812 228.672 49.0933 227.984 49.0933C227.547 49.0933 227.109 48.9214 226.672 48.5776C226.234 48.2339 226.016 47.687 226.016 46.937C226.016 45.4995 227.203 44.4058 229.578 43.6558C231.734 42.9058 235.219 42.0464 240.031 41.0776C242.125 40.6401 243.266 40.3745 243.453 40.2808C244.078 39.0308 244.578 37.9839 244.953 37.1401C246.328 34.2339 247.312 32.5308 247.906 32.0308C248.25 31.7495 248.641 31.6089 249.078 31.6089C250.234 31.6089 250.812 32.312 250.812 33.7183L250.719 34.7026C250.406 36.6714 249.516 37.7183 248.047 37.8433C247.703 37.8745 247.438 37.9526 247.25 38.0776C247.094 38.2026 246.922 38.4526 246.734 38.8276C246.609 39.0776 246.516 39.2808 246.453 39.437C246.391 39.562 246.359 39.6558 246.359 39.7183C246.359 39.7495 246.406 39.7651 246.5 39.7651C246.969 39.7651 248.078 39.6245 249.828 39.3433L253.391 38.8276C254.609 38.6714 257.516 38.4683 262.109 38.2183C263.641 38.1245 264.828 38.0776 265.672 38.0776C265.922 38.0776 266.141 38.0933 266.328 38.1245C266.547 38.1558 266.734 38.2183 266.891 38.312C267.234 38.4995 267.516 38.7808 267.734 39.1558C267.984 39.4995 268.109 39.8276 268.109 40.1401C268.109 40.8589 267.859 41.4214 267.359 41.8276C266.891 42.2339 266.281 42.437 265.531 42.437C265.094 42.437 264.688 42.3589 264.312 42.2026C262.219 41.7339 259.906 41.4995 257.375 41.4995C255.25 41.4995 252.531 41.687 249.219 42.062C246.438 42.4058 244.953 42.6714 244.766 42.8589C244.453 43.2339 243.672 44.8901 242.422 47.8276L241.344 50.4058C240.906 51.3433 240.5 52.3901 240.125 53.5464C239.438 55.4214 238.875 56.8901 238.438 57.9526C236.594 62.9526 235.078 67.687 233.891 72.1558C232.453 77.4683 231.734 81.4214 231.734 84.0151C231.734 84.6401 231.844 85.2339 232.062 85.7964C232.281 86.3589 232.391 86.8589 232.391 87.2964C232.391 87.6401 232.266 87.9995 232.016 88.3745C231.734 88.7808 231.422 89.062 231.078 89.2183C230.703 89.3745 230.391 89.4526 230.141 89.4526ZM238.016 75.1089C237.422 75.1089 237.125 74.9058 237.125 74.4995C237.125 73.2183 238.766 68.7026 242.047 60.9526C244.953 54.0151 247.062 49.1089 248.375 46.2339C250.156 42.1401 251.391 39.062 252.078 36.9995C252.422 36.0933 252.594 35.4683 252.594 35.1245C252.594 34.9683 252.547 34.7964 252.453 34.6089C252.359 34.2339 252.312 33.8745 252.312 33.5308C252.312 32.7495 252.562 32.1089 253.062 31.6089C253.562 31.0776 254.125 30.812 254.75 30.812C256.25 30.812 257 31.5776 257 33.1089C257 33.7964 256.797 34.4214 256.391 34.9839C256.016 35.5151 255.016 37.5308 253.391 41.0308L251.188 45.5776C247.906 52.4839 245.562 57.6401 244.156 61.0464C243.844 61.7964 243.609 62.3589 243.453 62.7339C243.297 63.1089 243.219 63.3276 243.219 63.3901C243.219 63.4214 243.203 63.4995 243.172 63.6245C243.203 63.6245 243.75 62.9839 244.812 61.7026C246.031 60.2964 247.469 58.7964 249.125 57.2026C250.781 55.5776 252.094 54.437 253.062 53.7808C254.188 52.9995 255.172 52.6089 256.016 52.6089C257.047 52.6089 257.797 53.0308 258.266 53.8745C258.641 54.6245 258.969 55.8901 259.25 57.6714C259.562 60.1714 259.984 61.4214 260.516 61.4214C260.922 61.4214 261.656 60.9995 262.719 60.1558C266.062 57.5933 267.906 55.4683 268.25 53.7808C268.594 52.6558 269.281 52.0933 270.312 52.0933C271.375 52.0933 272.047 52.6714 272.328 53.8276C272.359 53.9214 272.375 54.0308 272.375 54.1558C272.375 54.8745 271.734 55.6714 270.453 56.5464C269.578 57.1401 268.219 58.2183 266.375 59.7808C264.625 61.2495 263.344 62.2339 262.531 62.7339C261.719 63.2026 260.984 63.437 260.328 63.437C259.859 63.437 259.531 63.3901 259.344 63.2964C258.344 62.9526 257.562 61.2183 257 58.0933C256.688 56.0308 256.328 54.9995 255.922 54.9995C255.828 54.9995 255.656 55.062 255.406 55.187C253.188 56.4058 250.391 58.9839 247.016 62.9214C244.141 66.2964 241.828 69.5151 240.078 72.5776C239.297 73.9214 238.828 74.687 238.672 74.8745C238.516 75.0308 238.297 75.1089 238.016 75.1089ZM269.609 66.7183C269.266 66.7183 268.922 66.687 268.578 66.6245C266.453 66.2495 265.203 65.1245 264.828 63.2495V62.8745C264.828 60.7808 265.859 58.4526 267.922 55.8901C269.984 53.3276 272.188 51.7339 274.531 51.1089L274.906 51.062C275.156 51.062 275.484 51.2026 275.891 51.4839C276.953 52.1714 277.484 53.2495 277.484 54.7183C277.484 55.6558 277.172 56.7808 276.547 58.0933C275.953 59.3745 275.078 60.4839 273.922 61.4214C273.391 61.7964 272.922 61.9839 272.516 61.9839C271.953 61.9839 271.469 61.6714 271.062 61.0464C270.969 60.8901 270.891 60.7183 270.828 60.5308C270.797 60.3433 270.766 60.0933 270.734 59.7808C270.734 59.4683 270.734 59.0308 270.734 58.4683V57.6714C270.734 56.6089 270.641 56.0776 270.453 56.0776C270.328 56.0776 270.172 56.1714 269.984 56.3589C268.891 57.4214 268.016 58.7183 267.359 60.2495C266.859 61.3433 266.609 62.2339 266.609 62.9214C266.609 64.1714 267.75 64.7964 270.031 64.7964C272.281 64.7964 275.188 63.7495 278.75 61.6558C281.125 60.2808 283.281 58.7964 285.219 57.2026C286.969 55.7026 287.969 54.5776 288.219 53.8276C288.344 53.5464 288.484 53.2808 288.641 53.0308C288.953 52.5308 289.438 52.2808 290.094 52.2808C290.469 52.2808 290.969 52.437 291.594 52.7495C292.312 53.1245 292.672 53.7026 292.672 54.4839C292.672 55.1714 292.094 55.8276 290.938 56.4526C290.406 56.7026 289.062 57.5151 286.906 58.8901C280.5 63.2026 275.719 65.6558 272.562 66.2495C271.312 66.562 270.328 66.7183 269.609 66.7183ZM273.5 58.6558C274.812 56.9995 275.469 55.5464 275.469 54.2964C275.469 53.6089 275.297 53.2651 274.953 53.2651C274.703 53.2651 274.578 53.4839 274.578 53.9214L274.625 55.0464C274.625 55.5151 274.484 55.9839 274.203 56.4526C273.891 57.0464 273.703 57.562 273.641 57.9995L273.5 58.6558ZM327.875 64.3276C326.75 64.3276 325.75 63.9995 324.875 63.3433C324.031 62.562 323.562 61.562 323.469 60.3433C323.469 58.812 323.531 57.5308 323.656 56.4995L323.797 54.812C323.797 54.4683 323.766 54.2651 323.703 54.2026C323.641 54.1401 323.516 54.1089 323.328 54.1089C322.328 54.3276 320.516 55.7183 317.891 58.2808C315.297 60.812 313.594 62.0776 312.781 62.0776L312.5 62.0308C311.969 61.812 311.703 60.4839 311.703 58.0464C311.703 56.4526 311.641 55.5933 311.516 55.4683C311.516 55.3745 311.469 55.3276 311.375 55.3276C310.906 55.3276 309.469 56.4995 307.062 58.8433C306.812 59.0933 306.562 59.3745 306.312 59.687C305.156 61.062 304.188 61.7495 303.406 61.7495L303.078 61.7026C302.266 61.5151 301.859 61.0151 301.859 60.2026C301.859 59.7964 301.906 59.3276 302 58.7964L302.656 54.2964C302.781 53.2339 302.938 52.5151 303.125 52.1401C303.438 51.3901 304.078 51.0151 305.047 51.0151C305.984 51.0151 306.609 51.4995 306.922 52.4683C307.016 52.687 307.062 52.8745 307.062 53.0308C307.062 53.2183 306.875 53.7183 306.5 54.5308C305.719 56.0933 305.328 57.0308 305.328 57.3433V57.3901C305.422 57.3901 306.047 56.8901 307.203 55.8901C309.172 54.1089 310.688 53.2183 311.75 53.2183C312.75 53.2183 313.344 53.9839 313.531 55.5151C313.594 55.8901 313.641 56.3276 313.672 56.8276C313.672 57.3276 313.656 57.7808 313.625 58.187V59.5933C313.781 59.5933 314.359 59.062 315.359 57.9995C319.484 53.7183 322.375 51.5776 324.031 51.5776C325.25 51.5776 325.859 52.4214 325.859 54.1089C325.859 54.8901 325.781 55.8745 325.625 57.062C325.5 58.0308 325.438 58.9214 325.438 59.7339V60.2495C325.438 61.8745 326.156 62.687 327.594 62.687C328.344 62.687 329.453 62.4214 330.922 61.8901C332.391 61.3589 333.953 60.4995 335.609 59.312C337.266 58.1245 338.25 56.9683 338.562 55.8433C339 54.2808 339.812 53.4995 341 53.4995C341.5 53.4995 341.922 53.6714 342.266 54.0151C342.453 54.2339 342.547 54.4839 342.547 54.7651C342.547 55.4839 342.188 56.0464 341.469 56.4526C341.219 56.5776 340.984 56.7495 340.766 56.9683C339.797 57.9995 338.328 59.2339 336.359 60.6714C334.422 62.1089 332.391 63.187 330.266 63.9058C329.422 64.187 328.625 64.3276 327.875 64.3276ZM336.547 89.5464C336.328 89.5464 336.109 89.4995 335.891 89.4058C335.266 89.1245 334.953 88.5464 334.953 87.6714C334.953 86.9214 335.188 85.9526 335.656 84.7651C337.531 80.2964 341.828 74.7339 348.547 68.0776L351.594 65.0776C355.594 56.9214 357.594 52.7183 357.594 52.4683V52.4214L357.172 52.6558C354.859 54.312 350.797 58.062 344.984 63.9058C341.297 67.5933 339.234 69.562 338.797 69.812C338.328 69.9995 337.922 70.0933 337.578 70.0933C336.641 70.0933 336.172 69.4214 336.172 68.0776C336.172 66.8276 336.781 64.6245 338 61.4683C338.438 60.437 338.656 59.7651 338.656 59.4526C338.656 59.2651 338.625 59.062 338.562 58.8433C338.5 58.6245 338.469 58.3745 338.469 58.0933C338.469 56.8433 339.172 55.4526 340.578 53.9214C341.672 52.7651 342.578 52.187 343.297 52.187C343.641 52.187 343.953 52.2964 344.234 52.5151C344.703 52.8589 344.938 53.3433 344.938 53.9683C344.938 54.3433 344.688 55.0933 344.188 56.2183C343.344 58.187 342.484 59.4058 341.609 59.8745C340.734 60.2183 339.75 62.0933 338.656 65.4995C338.25 66.687 338.047 67.4839 338.047 67.8901C338.047 67.9214 338.078 67.937 338.141 67.937C338.328 67.937 338.906 67.4995 339.875 66.6245C340.812 65.7183 342.391 64.1558 344.609 61.937C352.797 53.8433 357.516 49.7964 358.766 49.7964C358.984 49.7964 359.203 49.937 359.422 50.2183C359.672 50.4995 359.797 50.7495 359.797 50.9683C359.797 51.7495 358.859 54.0776 356.984 57.9526C355.703 60.5151 355.062 61.8745 355.062 62.0308C355.219 62.0308 355.734 61.687 356.609 60.9995C357.703 60.2183 358.766 59.4839 359.797 58.7964C360.984 58.0464 361.906 57.437 362.562 56.9683C363.625 56.2183 364.312 55.5308 364.625 54.9058C364.938 54.2808 365.234 53.8276 365.516 53.5464C365.797 53.2339 366.203 53.0776 366.734 53.0776C367.297 53.0776 367.75 53.2651 368.094 53.6401C368.469 53.9839 368.656 54.3745 368.656 54.812C368.656 55.312 368.328 55.7808 367.672 56.2183C367.172 56.562 366.75 56.7339 366.406 56.7339C366.062 56.7339 365.234 57.1245 363.922 57.9058C360.984 59.6558 357.359 62.3276 353.047 65.9214C350.016 71.3901 347.484 75.7339 345.453 78.9526C341.672 84.7964 339.062 88.2183 337.625 89.2183C337.25 89.437 336.891 89.5464 336.547 89.5464ZM337.062 87.2026L337.625 86.6401C338.156 86.2026 338.859 85.3433 339.734 84.062C341.359 81.9683 343.312 79.1089 345.594 75.4839C347.406 72.6401 348.312 71.0933 348.312 70.8433L348.266 70.7964C348.141 70.7964 347.625 71.3276 346.719 72.3901C341.156 78.7651 337.938 83.7026 337.062 87.2026ZM383.469 74.9214C382.781 75.7026 382.094 76.0776 381.406 76.0464C380.75 75.9839 380.219 75.687 379.812 75.1558C379.438 74.6245 379.328 74.0464 379.484 73.4214C379.578 73.0151 379.75 72.687 380 72.437C380.281 72.1558 380.75 71.8276 381.406 71.4526C381.719 71.2964 382.359 70.9214 383.328 70.3276C384.328 69.7339 385.438 69.0776 386.656 68.3589L390.875 65.7808L392.516 62.4995C397.609 52.2808 403.891 42.4058 411.359 32.8745C418.859 23.3433 426.125 15.9683 433.156 10.7495C436.844 8.03076 439.562 6.76514 441.312 6.95264C443.156 7.01514 444.172 8.10889 444.359 10.2339C444.547 12.3276 443.953 15.7808 442.578 20.5933C442.328 21.4683 441.953 22.6558 441.453 24.1558C440.984 25.6558 440.266 27.8433 439.297 30.7183C438.359 33.5933 437.047 37.5308 435.359 42.5308C434.703 44.5308 434.141 46.2495 433.672 47.687C433.203 49.0933 432.969 49.8276 432.969 49.8901C432.969 49.9839 433.031 50.0464 433.156 50.0776C433.312 50.0776 433.594 50.0464 434 49.9839C434.344 49.9526 434.922 49.9214 435.734 49.8901C436.578 49.8589 437.453 49.8433 438.359 49.8433C440.703 49.8433 442.516 50.0151 443.797 50.3589C445.109 50.6714 446.156 51.2026 446.938 51.9526C447.438 52.3901 447.828 52.9214 448.109 53.5464C448.391 54.1714 448.625 55.0151 448.812 56.0776C449 57.0151 449.047 57.7495 448.953 58.2808C448.859 58.7808 448.594 59.2026 448.156 59.5464C447.594 59.9839 447 60.1245 446.375 59.9683C445.75 59.812 445.281 59.437 444.969 58.8433C444.781 58.4683 444.703 58.0776 444.734 57.6714C444.797 57.2339 444.969 56.7183 445.25 56.1245C446.312 53.8745 445.047 52.4526 441.453 51.8589C440.484 51.7026 439.328 51.6245 437.984 51.6245C436.672 51.5933 435.375 51.6558 434.094 51.812C433.594 51.8433 433.172 51.8901 432.828 51.9526C432.484 52.0151 432.297 52.0464 432.266 52.0464C432.203 52.1714 431.953 52.937 431.516 54.3433C431.109 55.7183 430.641 57.3589 430.109 59.2651C429.578 61.1401 429.094 62.8589 428.656 64.4214C426.469 72.5151 425.188 78.4214 424.812 82.1401C424.781 82.5776 424.766 82.9058 424.766 83.1245C424.766 83.3433 424.781 83.4839 424.812 83.5464C424.844 83.6089 424.922 83.6401 425.047 83.6401C425.328 83.6401 425.656 83.7808 426.031 84.062C426.406 84.3433 426.688 84.6558 426.875 84.9995C427.219 85.9058 427.047 86.6714 426.359 87.2964C425.672 87.9526 424.797 88.1401 423.734 87.8589C422.828 87.5151 422.266 86.7964 422.047 85.7026C421.922 84.4526 422.438 81.3276 423.594 76.3276C424.781 71.2964 426.453 65.2026 428.609 58.0464C429.078 56.4839 429.453 55.1714 429.734 54.1089C430.047 53.0464 430.188 52.4839 430.156 52.4214C430.125 52.3901 429.969 52.4058 429.688 52.4683C429.438 52.4995 429.125 52.5464 428.75 52.6089C420.188 54.4839 411.094 57.937 401.469 62.9683C400.281 63.5933 399.047 64.2808 397.766 65.0308C396.484 65.7495 395.375 66.3901 394.438 66.9526C393.531 67.5151 393 67.8745 392.844 68.0308C392.531 68.4058 392.047 69.4683 391.391 71.2183C390.766 72.937 390.094 74.9214 389.375 77.1714C388.656 79.3901 388.062 81.437 387.594 83.312C386.781 86.562 386.156 89.5464 385.719 92.2651C385.312 94.9839 385.188 96.8276 385.344 97.7964C385.531 98.9214 385.234 99.7495 384.453 100.281C383.703 100.812 382.922 100.843 382.109 100.375C381.578 100.031 381.281 99.4683 381.219 98.687C381.156 97.937 381.281 96.6558 381.594 94.8433C383.094 87.2183 385.203 79.8901 387.922 72.8589C388.141 72.3276 388.312 71.8745 388.438 71.4995C388.562 71.1245 388.609 70.9214 388.578 70.8901C388.516 70.8589 388.25 71.0151 387.781 71.3589C387.344 71.6714 386.812 72.062 386.188 72.5308C385.594 72.9995 385.031 73.4683 384.5 73.937C384 74.3745 383.656 74.7026 383.469 74.9214ZM400.391 52.8433C399.984 53.5308 399.469 54.4526 398.844 55.6089C398.219 56.7339 397.594 57.8901 396.969 59.0776C396.344 60.2651 395.812 61.2964 395.375 62.1714C394.938 63.0151 394.719 63.4839 394.719 63.5776C394.719 63.6089 395.172 63.4058 396.078 62.9683C396.984 62.5308 398.094 61.9839 399.406 61.3276C400.781 60.6714 402.219 59.9995 403.719 59.312C405.219 58.5933 406.453 58.0151 407.422 57.5776C415.141 54.2964 422.188 52.062 428.562 50.8745C429.156 50.7495 429.656 50.6401 430.062 50.5464C430.5 50.4214 430.75 50.3433 430.812 50.312C430.906 50.1558 431.391 48.7964 432.266 46.2339C433.141 43.6714 434.156 40.6714 435.312 37.2339C436.5 33.7964 437.562 30.6714 438.5 27.8589C442 17.3276 443.297 11.2183 442.391 9.53076C441.578 7.81201 438.562 8.96826 433.344 12.9995C427.625 17.437 421.422 23.7808 414.734 32.0308C409.203 38.9058 404.422 45.8433 400.391 52.8433ZM456.641 69.812C455.359 69.812 454.391 69.3745 453.734 68.4995C453.203 67.7808 452.938 66.3745 452.938 64.2808L452.984 62.1714C452.984 60.2026 452.766 58.812 452.328 57.9995C451.922 57.187 450.875 56.562 449.188 56.1245C447.375 55.5933 446.469 54.6089 446.469 53.1714C446.469 52.6714 446.562 52.1245 446.75 51.5308C447.125 50.3745 447.719 49.4839 448.531 48.8589C449.125 48.4214 449.719 48.2026 450.312 48.2026C450.562 48.2026 450.797 48.2339 451.016 48.2964C452.266 48.7339 452.891 49.7183 452.891 51.2495C452.891 51.937 452.797 52.562 452.609 53.1245C452.391 54.062 452.281 54.6714 452.281 54.9526C452.281 55.3589 452.5 55.6714 452.938 55.8901C453.719 56.5776 454.203 57.3433 454.391 58.187C454.484 58.687 454.562 60.1558 454.625 62.5933C454.688 65.3745 454.828 66.9526 455.047 67.3276C455.297 67.8276 455.797 68.0776 456.547 68.0776C457.672 68.0776 459.125 67.4058 460.906 66.062C463.562 64.0308 465.844 61.8276 467.75 59.4526C469.656 57.0464 470.734 55.0464 470.984 53.4526C471.047 52.9839 471.203 52.4839 471.453 51.9526C471.859 51.0151 472.406 50.5464 473.094 50.5464C473.312 50.5464 473.547 50.6089 473.797 50.7339C474.422 51.1401 474.734 51.7339 474.734 52.5151C474.734 52.6089 474.719 52.9058 474.688 53.4058C474.656 53.8745 474.266 54.4214 473.516 55.0464C473.172 55.2651 472.656 55.8745 471.969 56.8745C469.531 60.5308 466.641 63.687 463.297 66.3433C460.422 68.6558 458.203 69.812 456.641 69.812ZM448.625 53.5464C448.938 53.5464 449.328 53.1401 449.797 52.3276C450.078 51.7026 450.219 51.2183 450.219 50.8745C450.219 50.6245 450.156 50.4995 450.031 50.4995C449.812 50.4995 449.562 50.687 449.281 51.062C449 51.437 448.781 51.8276 448.625 52.2339C448.5 52.6089 448.438 52.9214 448.438 53.1714C448.438 53.4214 448.5 53.5464 448.625 53.5464ZM464.609 89.4526C464.297 89.4526 463.969 89.3433 463.625 89.1245C463.25 88.9058 463 88.6558 462.875 88.3745C462.75 88.0933 462.688 87.6558 462.688 87.062C462.688 86.4683 462.875 85.2026 463.25 83.2651C463.625 81.3589 464.016 79.687 464.422 78.2495L464.797 77.0308C466.016 72.3433 467.516 67.4683 469.297 62.4058C469.828 60.9683 470.094 60.1089 470.094 59.8276C470.406 58.4214 471.438 55.7183 473.188 51.7183L475.391 46.3276C476.141 44.4839 476.516 43.4683 476.516 43.2808C476.516 43.2183 476.453 43.187 476.328 43.187C476.141 43.187 475.703 43.2651 475.016 43.4214C473.328 43.7651 471.406 44.2339 469.25 44.8276C467.094 45.4214 465.734 45.937 465.172 46.3745C464.859 46.5933 464.703 46.8745 464.703 47.2183C464.703 47.562 464.547 47.9058 464.234 48.2495C463.734 48.812 463.141 49.0933 462.453 49.0933C462.016 49.0933 461.578 48.9214 461.141 48.5776C460.703 48.2339 460.484 47.687 460.484 46.937C460.484 45.4995 461.672 44.4058 464.047 43.6558C466.203 42.9058 469.688 42.0464 474.5 41.0776C476.594 40.6401 477.734 40.3745 477.922 40.2808C478.547 39.0308 479.047 37.9839 479.422 37.1401C480.797 34.2339 481.781 32.5308 482.375 32.0308C482.719 31.7495 483.109 31.6089 483.547 31.6089C484.703 31.6089 485.281 32.312 485.281 33.7183L485.188 34.7026C484.875 36.6714 483.984 37.7183 482.516 37.8433C482.172 37.8745 481.906 37.9526 481.719 38.0776C481.562 38.2026 481.391 38.4526 481.203 38.8276C481.078 39.0776 480.984 39.2808 480.922 39.437C480.859 39.562 480.828 39.6558 480.828 39.7183C480.828 39.7495 480.875 39.7651 480.969 39.7651C481.438 39.7651 482.547 39.6245 484.297 39.3433L487.859 38.8276C489.078 38.6714 491.984 38.4683 496.578 38.2183C498.109 38.1245 499.297 38.0776 500.141 38.0776C500.391 38.0776 500.609 38.0933 500.797 38.1245C501.016 38.1558 501.203 38.2183 501.359 38.312C501.703 38.4995 501.984 38.7808 502.203 39.1558C502.453 39.4995 502.578 39.8276 502.578 40.1401C502.578 40.8589 502.328 41.4214 501.828 41.8276C501.359 42.2339 500.75 42.437 500 42.437C499.562 42.437 499.156 42.3589 498.781 42.2026C496.688 41.7339 494.375 41.4995 491.844 41.4995C489.719 41.4995 487 41.687 483.688 42.062C480.906 42.4058 479.422 42.6714 479.234 42.8589C478.922 43.2339 478.141 44.8901 476.891 47.8276L475.812 50.4058C475.375 51.3433 474.969 52.3901 474.594 53.5464C473.906 55.4214 473.344 56.8901 472.906 57.9526C471.062 62.9526 469.547 67.687 468.359 72.1558C466.922 77.4683 466.203 81.4214 466.203 84.0151C466.203 84.6401 466.312 85.2339 466.531 85.7964C466.75 86.3589 466.859 86.8589 466.859 87.2964C466.859 87.6401 466.734 87.9995 466.484 88.3745C466.203 88.7808 465.891 89.062 465.547 89.2183C465.172 89.3745 464.859 89.4526 464.609 89.4526ZM484.906 33.9995C485.188 33.687 485.703 33.2339 486.453 32.6401C487.203 32.0464 487.984 31.4995 488.797 30.9995C489.609 30.4995 490.25 30.2183 490.719 30.1558C491.062 30.1558 492.797 29.3433 495.922 27.7183C497.266 26.9995 498.734 26.2339 500.328 25.4214C501.922 24.6089 503.25 23.9214 504.312 23.3589L508.016 21.5308L508.484 20.4995C508.641 20.187 508.906 19.562 509.281 18.6245C509.656 17.687 510.062 16.6714 510.5 15.5776L512.047 11.687L511.344 10.9839C511 10.7026 510.781 10.4683 510.688 10.2808C510.594 10.0933 510.547 9.78076 510.547 9.34326C510.547 8.84326 510.672 8.35889 510.922 7.89014C511.203 7.42139 511.688 6.84326 512.375 6.15576C512.844 5.65576 513.266 5.32764 513.641 5.17139C514.047 4.98389 514.453 4.92139 514.859 4.98389C515.797 5.26514 516.266 5.85889 516.266 6.76514C516.266 7.73389 514.891 11.2183 512.141 17.2183C511.797 17.9995 511.516 18.6558 511.297 19.187C511.078 19.7183 510.969 19.9995 510.969 20.0308C511.031 20.062 511.219 20.0151 511.531 19.8901C511.844 19.7339 512.234 19.562 512.703 19.3745C515.984 17.8433 519.656 16.2183 523.719 14.4995C527.812 12.7808 531.688 11.2183 535.344 9.81201C536.719 9.28076 538.141 8.73389 539.609 8.17139C541.078 7.60889 542.266 7.15576 543.172 6.81201C544.016 6.46826 544.766 6.18701 545.422 5.96826C546.078 5.74951 546.469 5.64014 546.594 5.64014C546.875 5.64014 547.141 5.76514 547.391 6.01514C547.641 6.26514 547.766 6.53076 547.766 6.81201C547.766 6.99951 547.594 7.39014 547.25 7.98389C546.906 8.54639 546.531 9.09326 546.125 9.62451C545.75 10.1558 545.438 10.5308 545.188 10.7495C544.594 11.0933 543.984 11.187 543.359 11.0308C542.766 10.8433 542.328 10.437 542.047 9.81201C541.984 9.65576 541.922 9.51514 541.859 9.39014C541.828 9.26514 541.812 9.18701 541.812 9.15576C541.688 9.15576 540.812 9.46826 539.188 10.0933C537.562 10.687 535.688 11.3901 533.562 12.2026C531.438 13.0151 529.562 13.7651 527.938 14.4526C525.562 15.4214 522.984 16.5464 520.203 17.8276C517.453 19.0776 515.047 20.2026 512.984 21.2026C510.922 22.2026 509.781 22.812 509.562 23.0308C509.469 23.1558 509.234 23.6089 508.859 24.3901C508.484 25.1401 508.047 26.062 507.547 27.1558C507.016 28.312 506.125 30.1714 504.875 32.7339C503.625 35.2651 502.312 37.9058 500.938 40.6558C499.5 43.4995 498.359 45.8276 497.516 47.6401C496.672 49.4214 496.281 50.312 496.344 50.312C496.406 50.312 496.703 50.2339 497.234 50.0776C497.766 49.8901 498.375 49.6558 499.062 49.3745C501 48.6558 503.672 47.7339 507.078 46.6089C510.484 45.4526 514.094 44.2808 517.906 43.0933C520.594 42.2495 522.703 41.5776 524.234 41.0776C525.766 40.5776 526.891 40.2026 527.609 39.9526C528.328 39.6714 528.812 39.437 529.062 39.2495C529.906 38.6558 530.656 38.5308 531.312 38.8745C532.125 39.187 532.531 39.7964 532.531 40.7026C532.531 41.2651 532.391 41.687 532.109 41.9683C532.078 41.9995 532.047 42.0308 532.016 42.062C531.922 42.1558 531.828 42.2339 531.734 42.2964C531.641 42.3589 531.516 42.4058 531.359 42.437C531.203 42.4683 530.969 42.4995 530.656 42.5308C530.344 42.5308 529.906 42.5308 529.344 42.5308C529.188 42.5308 529.031 42.5308 528.875 42.5308C527.969 42.5308 527.188 42.5776 526.531 42.6714C525.875 42.7651 525.016 42.9526 523.953 43.2339C520.984 44.0151 517.594 45.0151 513.781 46.2339C509.969 47.4214 506.516 48.6089 503.422 49.7964C502.297 50.2026 501.078 50.6714 499.766 51.2026C498.484 51.7339 497.359 52.2183 496.391 52.6558C495.422 53.0933 494.844 53.3745 494.656 53.4995C494.594 53.562 494.344 54.0151 493.906 54.8589C493.469 55.6714 492.953 56.6558 492.359 57.812C487.891 66.687 484.141 75.2339 481.109 83.4526C481.078 83.5151 481.047 83.5776 481.016 83.6401C480.859 84.0776 480.609 84.7495 480.266 85.6558C479.953 86.562 479.641 87.4995 479.328 88.4683C479.047 89.4683 478.844 90.312 478.719 90.9995C478.594 91.687 478.656 92.0464 478.906 92.0776C479.5 92.0776 480.016 92.2808 480.453 92.687C480.891 93.1245 481.109 93.6401 481.109 94.2339C481.109 94.7964 480.828 95.3276 480.266 95.8276C479.703 96.3589 479.062 96.7339 478.344 96.9526C477.625 97.2026 477.016 97.187 476.516 96.9058C475.328 96.4058 475.328 94.3901 476.516 90.8589C477.922 86.6089 479.812 81.6558 482.188 75.9995C484.562 70.3433 487.031 64.9526 489.594 59.8276C491.219 56.6714 491.906 55.0933 491.656 55.0933C491.594 55.0933 491.375 55.2026 491 55.4214C490.625 55.6089 490.188 55.8433 489.688 56.1245C489.188 56.4683 488.812 56.7339 488.562 56.9214C488.312 57.1089 488.125 57.2964 488 57.4839C487.906 57.6401 487.812 57.8433 487.719 58.0933C487.438 58.9058 486.969 59.437 486.312 59.687C485.656 59.937 484.969 59.8589 484.25 59.4526C483.406 58.8901 483.031 58.2026 483.125 57.3901C483.219 56.5464 483.734 55.937 484.672 55.562C485.016 55.437 485.719 55.1401 486.781 54.6714C487.844 54.1714 488.969 53.6401 490.156 53.0776C491.344 52.5151 492.297 52.062 493.016 51.7183L493.812 51.3433L498.359 41.9683C504.047 30.3433 506.766 24.5308 506.516 24.5308C506.141 24.5933 503.406 26.0776 498.312 28.9839C497.062 29.6714 496.094 30.2183 495.406 30.6245C494.719 31.0308 494.219 31.3589 493.906 31.6089C493.594 31.8276 493.391 32.0151 493.297 32.1714C493.203 32.3276 493.141 32.5151 493.109 32.7339C492.984 33.7026 492.172 34.6089 490.672 35.4526C488.953 36.4526 487.625 36.9526 486.688 36.9526C486.312 36.9526 486.031 36.9214 485.844 36.8589C485.656 36.7651 485.438 36.5933 485.188 36.3433C484.469 35.562 484.375 34.7808 484.906 33.9995ZM525.078 72.9995C523.953 72.9995 523.125 72.4683 522.594 71.4058C522.156 70.562 521.922 69.5776 521.891 68.4526C521.891 66.2339 522.531 63.5464 523.812 60.3901C525.219 56.8276 527 54.1558 529.156 52.3745C530.062 51.6245 531 51.2495 531.969 51.2495C533.188 51.2495 534.281 51.9214 535.25 53.2651C535.812 54.1089 536.156 55.0151 536.281 55.9839C536.375 56.6714 536.484 57.0151 536.609 57.0151C536.766 57.0151 537.109 56.937 537.641 56.7808C540.234 55.9683 541.688 55.1558 542 54.3433C542.469 53.3745 543.141 52.8901 544.016 52.8901C544.734 52.8901 545.328 53.2651 545.797 54.0151C545.922 54.2964 545.984 54.5776 545.984 54.8589C545.984 55.8901 545.297 56.562 543.922 56.8745C543.234 57.0308 541.641 57.5308 539.141 58.3745C538.516 58.5933 538 58.7339 537.594 58.7964C536.781 58.9839 536.297 59.1245 536.141 59.2183C535.953 59.5933 535.812 59.9839 535.719 60.3901C535.438 61.2339 534.969 62.2964 534.312 63.5776C533.219 65.6401 532.125 67.3433 531.031 68.687C528.625 71.562 526.641 72.9995 525.078 72.9995ZM525.172 70.7964C525.578 70.7964 526.078 70.5776 526.672 70.1401C527.859 69.2651 529.156 67.812 530.562 65.7808C531.969 63.7183 533.016 61.7964 533.703 60.0151L533.938 59.312C532.438 59.0933 531.25 58.5933 530.375 57.812C530.062 57.4683 529.781 57.2964 529.531 57.2964C529.281 57.2964 528.859 57.7339 528.266 58.6089C526.953 60.6089 525.938 62.5776 525.219 64.5151C524.594 66.1401 524.281 67.6245 524.281 68.9683C524.281 70.187 524.578 70.7964 525.172 70.7964ZM534.172 56.312C534.234 56.312 534.266 56.2808 534.266 56.2183C534.266 56.0308 534.125 55.7651 533.844 55.4214C533.312 54.8276 532.922 54.5308 532.672 54.5308C532.547 54.5308 532.484 54.5776 532.484 54.6714C532.484 55.1401 532.812 55.5776 533.469 55.9839C533.812 56.2026 534.047 56.312 534.172 56.312ZM545.328 48.9995C545.766 47.9683 546.266 46.812 546.828 45.5308C547.391 44.2183 547.906 43.0308 548.375 41.9683C548.469 41.7495 548.547 41.5464 548.609 41.3589L550.203 37.6089L549.781 37.0464C548.875 35.8589 548.969 34.6558 550.062 33.437C551.562 31.8433 552.875 31.6245 554 32.7808C554.281 33.062 554.422 33.3901 554.422 33.7651C554.453 34.1401 554.328 34.687 554.047 35.4058C553.766 36.1245 553.297 37.1245 552.641 38.4058C550.703 42.2495 548.578 46.7339 546.266 51.8589C543.953 56.9526 541.891 62.1089 540.078 67.3276C538.234 72.5151 537.094 77.2026 536.656 81.3901L536.422 83.5933L537.312 84.5308C537.656 84.9058 537.891 85.187 538.016 85.3745C538.109 85.5933 538.156 85.8745 538.156 86.2183C538.156 87.0308 537.891 87.6089 537.359 87.9526C536.828 88.3276 536.188 88.3901 535.438 88.1401C534.188 87.6089 533.562 86.2808 533.562 84.1558C533.656 81.4058 534.406 77.8589 535.812 73.5151C537.188 69.1401 538.781 64.7183 540.594 60.2495C542.406 55.7808 543.984 52.0308 545.328 48.9995ZM550.953 51.9526C551.391 51.5464 551.906 51.3901 552.5 51.4839C553.125 51.5464 553.609 51.8276 553.953 52.3276C554.297 52.9214 554.359 53.6714 554.141 54.5776C553.922 55.4526 553.5 56.062 552.875 56.4058C552.531 56.562 552.156 56.9995 551.75 57.7183C551.375 58.4058 550.906 59.5151 550.344 61.0464C548.844 65.0776 548.562 67.6401 549.5 68.7339C549.656 68.8901 549.828 68.9995 550.016 69.062C550.203 69.0933 550.547 69.0933 551.047 69.062C553.297 68.8433 557.484 66.437 563.609 61.8433C568.703 58.0308 571.25 55.6245 571.25 54.6245C571.25 53.6245 571.719 52.8901 572.656 52.4214C573.625 51.9526 574.547 52.0308 575.422 52.6558C575.766 52.9995 575.953 53.4526 575.984 54.0151C576.047 54.5464 575.953 55.0308 575.703 55.4683C575.547 55.7183 575.328 55.9683 575.047 56.2183C574.766 56.4683 574.469 56.7026 574.156 56.9214C573.875 57.1089 573.656 57.2026 573.5 57.2026C573.25 57.2026 572.734 57.4526 571.953 57.9526C571.172 58.4214 569.984 59.2651 568.391 60.4839C559.891 66.7964 554.406 70.187 551.938 70.6558C551.344 70.812 550.875 70.8901 550.531 70.8901C550.188 70.8901 549.812 70.812 549.406 70.6558C549.188 70.562 548.969 70.4526 548.75 70.3276C548.5 70.1714 548.312 70.0151 548.188 69.8589C547.875 69.5151 547.625 69.0308 547.438 68.4058C547.219 67.7808 547.109 67.187 547.109 66.6245C547.109 65.9995 547.219 65.1401 547.438 64.0464C547.656 62.9214 547.938 61.812 548.281 60.7183C548.781 59.1245 549.141 57.9058 549.359 57.062C549.578 56.2183 549.688 55.562 549.688 55.0933C549.688 54.562 549.812 53.9839 550.062 53.3589C550.312 52.7339 550.609 52.2651 550.953 51.9526ZM556.812 46.8433C556.469 47.4995 556 47.9214 555.406 48.1089C554.812 48.2964 554.203 48.2183 553.578 47.8745C552.953 47.437 552.609 46.8589 552.547 46.1401C552.516 45.4214 552.719 44.7651 553.156 44.1714C553.594 43.5464 554.188 43.2339 554.938 43.2339C555.812 43.2339 556.469 43.6401 556.906 44.4526C557.281 45.2026 557.25 45.9995 556.812 46.8433ZM570.547 72.9995C569.422 72.9995 568.594 72.4683 568.062 71.4058C567.625 70.562 567.391 69.5776 567.359 68.4526C567.359 66.2339 568 63.5464 569.281 60.3901C570.688 56.8276 572.469 54.1558 574.625 52.3745C575.531 51.6245 576.469 51.2495 577.438 51.2495C578.656 51.2495 579.75 51.9214 580.719 53.2651C581.281 54.1089 581.625 55.0151 581.75 55.9839C581.844 56.6714 581.953 57.0151 582.078 57.0151C582.234 57.0151 582.578 56.937 583.109 56.7808C585.703 55.9683 587.156 55.1558 587.469 54.3433C587.938 53.3745 588.609 52.8901 589.484 52.8901C590.203 52.8901 590.797 53.2651 591.266 54.0151C591.391 54.2964 591.453 54.5776 591.453 54.8589C591.453 55.8901 590.766 56.562 589.391 56.8745C588.703 57.0308 587.109 57.5308 584.609 58.3745C583.984 58.5933 583.469 58.7339 583.062 58.7964C582.25 58.9839 581.766 59.1245 581.609 59.2183C581.422 59.5933 581.281 59.9839 581.188 60.3901C580.906 61.2339 580.438 62.2964 579.781 63.5776C578.688 65.6401 577.594 67.3433 576.5 68.687C574.094 71.562 572.109 72.9995 570.547 72.9995ZM570.641 70.7964C571.047 70.7964 571.547 70.5776 572.141 70.1401C573.328 69.2651 574.625 67.812 576.031 65.7808C577.438 63.7183 578.484 61.7964 579.172 60.0151L579.406 59.312C577.906 59.0933 576.719 58.5933 575.844 57.812C575.531 57.4683 575.25 57.2964 575 57.2964C574.75 57.2964 574.328 57.7339 573.734 58.6089C572.422 60.6089 571.406 62.5776 570.688 64.5151C570.062 66.1401 569.75 67.6245 569.75 68.9683C569.75 70.187 570.047 70.7964 570.641 70.7964ZM579.641 56.312C579.703 56.312 579.734 56.2808 579.734 56.2183C579.734 56.0308 579.594 55.7651 579.312 55.4214C578.781 54.8276 578.391 54.5308 578.141 54.5308C578.016 54.5308 577.953 54.5776 577.953 54.6714C577.953 55.1401 578.281 55.5776 578.938 55.9839C579.281 56.2026 579.516 56.312 579.641 56.312Z" fill="#FFFF00"/>
</svg>
