<svg width="254" height="58" viewBox="0 0 254 58" fill="none" xmlns="http://www.w3.org/2000/svg">
<g opacity="0.25">
<circle cx="3.62082" cy="3.62082" r="3.62082" transform="matrix(1 0 0 -1 50.0098 57.541)" fill="#4BB4E2"/>
<circle cx="3.62082" cy="3.62082" r="3.62082" transform="matrix(1 0 0 -1 50.0098 40.9258)" fill="#4BB4E2"/>
<circle cx="3.62082" cy="3.62082" r="3.62082" transform="matrix(1 0 0 -1 50.0098 24.3115)" fill="#4BB4E2"/>
<ellipse cx="3.62082" cy="3.62082" rx="3.62082" ry="3.62082" transform="matrix(1 0 0 -1 50.0098 7.69727)" fill="#4BB4E2"/>
<ellipse cx="3.62082" cy="3.62082" rx="3.62082" ry="3.62082" transform="matrix(1 0 0 -1 33.3955 57.541)" fill="#4BB4E2"/>
<ellipse cx="3.62082" cy="3.62082" rx="3.62082" ry="3.62082" transform="matrix(1 0 0 -1 33.3955 40.9258)" fill="#4BB4E2"/>
<ellipse cx="3.62082" cy="3.62082" rx="3.62082" ry="3.62082" transform="matrix(1 0 0 -1 33.3955 24.3115)" fill="#4BB4E2"/>
<ellipse cx="3.62082" cy="3.62082" rx="3.62082" ry="3.62082" transform="matrix(1 0 0 -1 33.3955 7.69727)" fill="#4BB4E2"/>
<ellipse cx="3.62082" cy="3.62082" rx="3.62082" ry="3.62082" transform="matrix(1 0 0 -1 16.7812 57.541)" fill="#4BB4E2"/>
<ellipse cx="3.62082" cy="3.62082" rx="3.62082" ry="3.62082" transform="matrix(1 0 0 -1 16.7812 40.9258)" fill="#4BB4E2"/>
<ellipse cx="3.62082" cy="3.62082" rx="3.62082" ry="3.62082" transform="matrix(1 0 0 -1 16.7812 24.3115)" fill="#4BB4E2"/>
<ellipse cx="3.62082" cy="3.62082" rx="3.62082" ry="3.62082" transform="matrix(1 0 0 -1 16.7812 7.69727)" fill="#4BB4E2"/>
<ellipse cx="3.62082" cy="3.62082" rx="3.62082" ry="3.62082" transform="matrix(1 0 0 -1 0.166992 57.541)" fill="#4BB4E2"/>
<ellipse cx="3.62082" cy="3.62082" rx="3.62082" ry="3.62082" transform="matrix(1 0 0 -1 0.166992 40.9258)" fill="#4BB4E2"/>
<ellipse cx="3.62082" cy="3.62082" rx="3.62082" ry="3.62082" transform="matrix(1 0 0 -1 0.166992 24.3115)" fill="#4BB4E2"/>
<circle cx="3.62082" cy="3.62082" r="3.62082" transform="matrix(1 0 0 -1 0.166992 7.69727)" fill="#4BB4E2"/>
<circle cx="3.62082" cy="3.62082" r="3.62082" transform="matrix(1 0 0 -1 115.185 57.541)" fill="#4BB4E2"/>
<circle cx="3.62082" cy="3.62082" r="3.62082" transform="matrix(1 0 0 -1 115.185 40.9258)" fill="#4BB4E2"/>
<circle cx="3.62082" cy="3.62082" r="3.62082" transform="matrix(1 0 0 -1 115.185 24.3115)" fill="#4BB4E2"/>
<ellipse cx="3.62082" cy="3.62082" rx="3.62082" ry="3.62082" transform="matrix(1 0 0 -1 115.185 7.69727)" fill="#4BB4E2"/>
<circle cx="3.62082" cy="3.62082" r="3.62082" transform="matrix(1 0 0 -1 98.5703 57.541)" fill="#4BB4E2"/>
<circle cx="3.62082" cy="3.62082" r="3.62082" transform="matrix(1 0 0 -1 98.5703 40.9258)" fill="#4BB4E2"/>
<circle cx="3.62082" cy="3.62082" r="3.62082" transform="matrix(1 0 0 -1 98.5703 24.3115)" fill="#4BB4E2"/>
<ellipse cx="3.62082" cy="3.62082" rx="3.62082" ry="3.62082" transform="matrix(1 0 0 -1 98.5703 7.69727)" fill="#4BB4E2"/>
<circle cx="3.62082" cy="3.62082" r="3.62082" transform="matrix(1 0 0 -1 81.9561 57.541)" fill="#4BB4E2"/>
<circle cx="3.62082" cy="3.62082" r="3.62082" transform="matrix(1 0 0 -1 81.9561 40.9258)" fill="#4BB4E2"/>
<circle cx="3.62082" cy="3.62082" r="3.62082" transform="matrix(1 0 0 -1 81.9561 24.3115)" fill="#4BB4E2"/>
<ellipse cx="3.62082" cy="3.62082" rx="3.62082" ry="3.62082" transform="matrix(1 0 0 -1 81.9561 7.69727)" fill="#4BB4E2"/>
<circle cx="3.62082" cy="3.62082" r="3.62082" transform="matrix(1 0 0 -1 65.3418 57.541)" fill="#4BB4E2"/>
<circle cx="3.62082" cy="3.62082" r="3.62082" transform="matrix(1 0 0 -1 65.3418 40.9258)" fill="#4BB4E2"/>
<circle cx="3.62082" cy="3.62082" r="3.62082" transform="matrix(1 0 0 -1 65.3418 24.3115)" fill="#4BB4E2"/>
<ellipse cx="3.62082" cy="3.62082" rx="3.62082" ry="3.62082" transform="matrix(1 0 0 -1 65.3418 7.69727)" fill="#4BB4E2"/>
<circle cx="3.62082" cy="3.62082" r="3.62082" transform="matrix(1 0 0 -1 180.359 57.541)" fill="#4BB4E2"/>
<circle cx="3.62082" cy="3.62082" r="3.62082" transform="matrix(1 0 0 -1 246.741 57.541)" fill="#4BB4E2"/>
<circle cx="3.62082" cy="3.62082" r="3.62082" transform="matrix(1 0 0 -1 180.359 40.9258)" fill="#4BB4E2"/>
<circle cx="3.62082" cy="3.62082" r="3.62082" transform="matrix(1 0 0 -1 246.741 40.9258)" fill="#4BB4E2"/>
<circle cx="3.62082" cy="3.62082" r="3.62082" transform="matrix(1 0 0 -1 180.359 24.3115)" fill="#4BB4E2"/>
<circle cx="3.62082" cy="3.62082" r="3.62082" transform="matrix(1 0 0 -1 246.741 24.3115)" fill="#4BB4E2"/>
<ellipse cx="3.62082" cy="3.62082" rx="3.62082" ry="3.62082" transform="matrix(1 0 0 -1 180.359 7.69727)" fill="#4BB4E2"/>
<ellipse cx="3.62082" cy="3.62082" rx="3.62082" ry="3.62082" transform="matrix(1 0 0 -1 246.741 7.69727)" fill="#4BB4E2"/>
<circle cx="3.62082" cy="3.62082" r="3.62082" transform="matrix(1 0 0 -1 163.745 57.541)" fill="#4BB4E2"/>
<circle cx="3.62082" cy="3.62082" r="3.62082" transform="matrix(1 0 0 -1 230.127 57.541)" fill="#4BB4E2"/>
<circle cx="3.62082" cy="3.62082" r="3.62082" transform="matrix(1 0 0 -1 163.745 40.9258)" fill="#4BB4E2"/>
<circle cx="3.62082" cy="3.62082" r="3.62082" transform="matrix(1 0 0 -1 230.127 40.9258)" fill="#4BB4E2"/>
<circle cx="3.62082" cy="3.62082" r="3.62082" transform="matrix(1 0 0 -1 163.745 24.3115)" fill="#4BB4E2"/>
<circle cx="3.62082" cy="3.62082" r="3.62082" transform="matrix(1 0 0 -1 230.127 24.3115)" fill="#4BB4E2"/>
<ellipse cx="3.62082" cy="3.62082" rx="3.62082" ry="3.62082" transform="matrix(1 0 0 -1 163.745 7.69727)" fill="#4BB4E2"/>
<ellipse cx="3.62082" cy="3.62082" rx="3.62082" ry="3.62082" transform="matrix(1 0 0 -1 230.127 7.69727)" fill="#4BB4E2"/>
<circle cx="3.62082" cy="3.62082" r="3.62082" transform="matrix(1 0 0 -1 147.131 57.541)" fill="#4BB4E2"/>
<circle cx="3.62082" cy="3.62082" r="3.62082" transform="matrix(1 0 0 -1 213.513 57.541)" fill="#4BB4E2"/>
<circle cx="3.62082" cy="3.62082" r="3.62082" transform="matrix(1 0 0 -1 147.131 40.9258)" fill="#4BB4E2"/>
<circle cx="3.62082" cy="3.62082" r="3.62082" transform="matrix(1 0 0 -1 213.513 40.9258)" fill="#4BB4E2"/>
<circle cx="3.62082" cy="3.62082" r="3.62082" transform="matrix(1 0 0 -1 147.131 24.3115)" fill="#4BB4E2"/>
<circle cx="3.62082" cy="3.62082" r="3.62082" transform="matrix(1 0 0 -1 213.513 24.3115)" fill="#4BB4E2"/>
<ellipse cx="3.62082" cy="3.62082" rx="3.62082" ry="3.62082" transform="matrix(1 0 0 -1 147.131 7.69727)" fill="#4BB4E2"/>
<ellipse cx="3.62082" cy="3.62082" rx="3.62082" ry="3.62082" transform="matrix(1 0 0 -1 213.513 7.69727)" fill="#4BB4E2"/>
<circle cx="3.62082" cy="3.62082" r="3.62082" transform="matrix(1 0 0 -1 130.517 57.541)" fill="#4BB4E2"/>
<circle cx="3.62082" cy="3.62082" r="3.62082" transform="matrix(1 0 0 -1 196.898 57.541)" fill="#4BB4E2"/>
<circle cx="3.62082" cy="3.62082" r="3.62082" transform="matrix(1 0 0 -1 130.517 40.9258)" fill="#4BB4E2"/>
<circle cx="3.62082" cy="3.62082" r="3.62082" transform="matrix(1 0 0 -1 196.898 40.9258)" fill="#4BB4E2"/>
<circle cx="3.62082" cy="3.62082" r="3.62082" transform="matrix(1 0 0 -1 130.517 24.3115)" fill="#4BB4E2"/>
<circle cx="3.62082" cy="3.62082" r="3.62082" transform="matrix(1 0 0 -1 196.898 24.3115)" fill="#4BB4E2"/>
<ellipse cx="3.62082" cy="3.62082" rx="3.62082" ry="3.62082" transform="matrix(1 0 0 -1 130.517 7.69727)" fill="#4BB4E2"/>
<ellipse cx="3.62082" cy="3.62082" rx="3.62082" ry="3.62082" transform="matrix(1 0 0 -1 196.898 7.69727)" fill="#4BB4E2"/>
</g>
</svg>
