<svg width="24" height="24" viewBox="0 0 24 24" fill="none" xmlns="http://www.w3.org/2000/svg">
<path d="M12 23.003C10.5145 23.003 9.07406 22.7116 7.71793 22.1384C6.40806 21.5841 5.2318 20.7905 4.22148 19.7815C3.21117 18.7725 2.41878 17.5948 1.8646 16.285C1.29009 14.9277 1 13.487 1 12.003C1 10.5174 1.29137 9.07704 1.8646 7.7209C2.41883 6.41103 3.21252 5.23478 4.22148 4.22446C5.23051 3.21419 6.40822 2.42175 7.71793 1.86757C9.07385 1.29139 10.5144 1 12 1C13.4856 1 14.9259 1.29137 16.2821 1.8646C17.5919 2.41884 18.7682 3.21252 19.7785 4.22149C20.7888 5.23045 21.5812 6.40822 22.1354 7.71793C22.7099 9.07531 23 10.5159 23 12C23 13.4855 22.7086 14.9259 22.1354 16.2821C21.5812 17.5919 20.7875 18.7682 19.7785 19.7785C18.7695 20.7888 17.5918 21.5812 16.2821 22.1354C14.9259 22.7116 13.4854 23.003 12 23.003ZM12 2.74255C6.89408 2.74255 2.74109 6.89538 2.74109 12.0015C2.74109 17.1075 6.89392 21.2604 12 21.2604C17.1061 21.2604 21.2589 17.1075 21.2589 12.0015C21.2587 6.89554 17.1059 2.74255 12 2.74255Z" fill="white"/>
<path d="M9.83815 15.7537C9.35761 15.7537 8.9668 15.3629 8.9668 14.8823V9.11995C8.9668 8.63941 9.35761 8.2486 9.83815 8.2486C10.3187 8.2486 10.7095 8.63941 10.7095 9.11995V14.8823C10.7095 15.3631 10.3187 15.7537 9.83815 15.7537Z" fill="white"/>
<path d="M14.1624 15.7537C13.6818 15.7537 13.291 15.3629 13.291 14.8823V9.11995C13.291 8.63941 13.6818 8.2486 14.1624 8.2486C14.6429 8.2486 15.0337 8.63941 15.0337 9.11995V14.8823C15.0337 15.3631 14.6444 15.7537 14.1624 15.7537Z" fill="white"/>
</svg>
