<svg width="40" height="40" viewBox="0 0 40 40" fill="none" xmlns="http://www.w3.org/2000/svg">
<path d="M23.6634 13.9074C22.8278 13.9074 22.1504 14.5847 22.1504 15.4202V24.5798C22.1504 25.4152 22.8278 26.0926 23.6634 26.0926C24.4988 26.0926 25.1762 25.4152 25.1762 24.5798V15.4202C25.1762 14.5847 24.4988 13.9074 23.6634 13.9074Z" fill="#F6F6F6"/>
<path d="M16.3371 13.9074C15.5015 13.9074 14.8242 14.5847 14.8242 15.4202V24.5798C14.8242 25.4152 15.5015 26.0926 16.3371 26.0926C17.1726 26.0926 17.8499 25.4152 17.8499 24.5798V15.4202C17.8499 14.5847 17.1726 13.9074 16.3371 13.9074Z" fill="#F6F6F6"/>
<path fill-rule="evenodd" clip-rule="evenodd" d="M20 2C10.0589 2 2 10.0589 2 20C2 29.9412 10.0589 38 20 38C29.9412 38 38 29.9412 38 20C38 10.0589 29.9412 2 20 2ZM5.0257 20C5.0257 11.7299 11.7299 5.0257 20 5.0257C28.27 5.0257 34.9744 11.7299 34.9744 20C34.9744 28.27 28.27 34.9744 20 34.9744C11.7299 34.9744 5.0257 28.27 5.0257 20Z" fill="#F6F6F6"/>
</svg>
