<svg width="254" height="58" viewBox="0 0 254 58" fill="none" xmlns="http://www.w3.org/2000/svg">
<g opacity="0.25">
<circle cx="3.62082" cy="3.62082" r="3.62082" transform="matrix(1 0 0 -1 115.185 57.7793)" fill="#4BB4E2"/>
<circle cx="3.62082" cy="3.62082" r="3.62082" transform="matrix(1 0 0 -1 115.185 41.165)" fill="#4BB4E2"/>
<circle cx="3.62082" cy="3.62082" r="3.62082" transform="matrix(1 0 0 -1 115.185 24.5508)" fill="#4BB4E2"/>
<ellipse cx="3.62082" cy="3.62082" rx="3.62082" ry="3.62082" transform="matrix(1 0 0 -1 115.185 7.93652)" fill="#4BB4E2"/>
<circle cx="3.62082" cy="3.62082" r="3.62082" transform="matrix(1 0 0 -1 98.5703 57.7793)" fill="#4BB4E2"/>
<circle cx="3.62082" cy="3.62082" r="3.62082" transform="matrix(1 0 0 -1 98.5703 41.165)" fill="#4BB4E2"/>
<circle cx="3.62082" cy="3.62082" r="3.62082" transform="matrix(1 0 0 -1 98.5703 24.5508)" fill="#4BB4E2"/>
<ellipse cx="3.62082" cy="3.62082" rx="3.62082" ry="3.62082" transform="matrix(1 0 0 -1 98.5703 7.93652)" fill="#4BB4E2"/>
<circle cx="3.62082" cy="3.62082" r="3.62082" transform="matrix(1 0 0 -1 81.9561 57.7793)" fill="#4BB4E2"/>
<circle cx="3.62082" cy="3.62082" r="3.62082" transform="matrix(1 0 0 -1 81.9561 41.165)" fill="#4BB4E2"/>
<circle cx="3.62082" cy="3.62082" r="3.62082" transform="matrix(1 0 0 -1 81.9561 24.5508)" fill="#4BB4E2"/>
<ellipse cx="3.62082" cy="3.62082" rx="3.62082" ry="3.62082" transform="matrix(1 0 0 -1 81.9561 7.93652)" fill="#4BB4E2"/>
<circle cx="3.62082" cy="3.62082" r="3.62082" transform="matrix(1 0 0 -1 180.359 57.7793)" fill="#4BB4E2"/>
<circle cx="3.62082" cy="3.62082" r="3.62082" transform="matrix(1 0 0 -1 246.741 57.7793)" fill="#4BB4E2"/>
<circle cx="3.62082" cy="3.62082" r="3.62082" transform="matrix(1 0 0 -1 180.359 41.165)" fill="#4BB4E2"/>
<circle cx="3.62082" cy="3.62082" r="3.62082" transform="matrix(1 0 0 -1 246.741 41.165)" fill="#4BB4E2"/>
<circle cx="3.62082" cy="3.62082" r="3.62082" transform="matrix(1 0 0 -1 180.359 24.5508)" fill="#4BB4E2"/>
<circle cx="3.62082" cy="3.62082" r="3.62082" transform="matrix(1 0 0 -1 246.741 24.5508)" fill="#4BB4E2"/>
<ellipse cx="3.62082" cy="3.62082" rx="3.62082" ry="3.62082" transform="matrix(1 0 0 -1 180.359 7.93652)" fill="#4BB4E2"/>
<ellipse cx="3.62082" cy="3.62082" rx="3.62082" ry="3.62082" transform="matrix(1 0 0 -1 246.741 7.93652)" fill="#4BB4E2"/>
<circle cx="3.62082" cy="3.62082" r="3.62082" transform="matrix(1 0 0 -1 163.745 57.7793)" fill="#4BB4E2"/>
<circle cx="3.62082" cy="3.62082" r="3.62082" transform="matrix(1 0 0 -1 230.127 57.7793)" fill="#4BB4E2"/>
<circle cx="3.62082" cy="3.62082" r="3.62082" transform="matrix(1 0 0 -1 163.745 41.165)" fill="#4BB4E2"/>
<circle cx="3.62082" cy="3.62082" r="3.62082" transform="matrix(1 0 0 -1 230.127 41.165)" fill="#4BB4E2"/>
<circle cx="3.62082" cy="3.62082" r="3.62082" transform="matrix(1 0 0 -1 163.745 24.5508)" fill="#4BB4E2"/>
<circle cx="3.62082" cy="3.62082" r="3.62082" transform="matrix(1 0 0 -1 230.127 24.5508)" fill="#4BB4E2"/>
<ellipse cx="3.62082" cy="3.62082" rx="3.62082" ry="3.62082" transform="matrix(1 0 0 -1 163.745 7.93652)" fill="#4BB4E2"/>
<ellipse cx="3.62082" cy="3.62082" rx="3.62082" ry="3.62082" transform="matrix(1 0 0 -1 230.127 7.93652)" fill="#4BB4E2"/>
<circle cx="3.62082" cy="3.62082" r="3.62082" transform="matrix(1 0 0 -1 147.131 57.7793)" fill="#4BB4E2"/>
<circle cx="3.62082" cy="3.62082" r="3.62082" transform="matrix(1 0 0 -1 213.513 57.7793)" fill="#4BB4E2"/>
<circle cx="3.62082" cy="3.62082" r="3.62082" transform="matrix(1 0 0 -1 147.131 41.165)" fill="#4BB4E2"/>
<circle cx="3.62082" cy="3.62082" r="3.62082" transform="matrix(1 0 0 -1 213.513 41.165)" fill="#4BB4E2"/>
<circle cx="3.62082" cy="3.62082" r="3.62082" transform="matrix(1 0 0 -1 147.131 24.5508)" fill="#4BB4E2"/>
<circle cx="3.62082" cy="3.62082" r="3.62082" transform="matrix(1 0 0 -1 213.513 24.5508)" fill="#4BB4E2"/>
<ellipse cx="3.62082" cy="3.62082" rx="3.62082" ry="3.62082" transform="matrix(1 0 0 -1 147.131 7.93652)" fill="#4BB4E2"/>
<ellipse cx="3.62082" cy="3.62082" rx="3.62082" ry="3.62082" transform="matrix(1 0 0 -1 213.513 7.93652)" fill="#4BB4E2"/>
<circle cx="3.62082" cy="3.62082" r="3.62082" transform="matrix(1 0 0 -1 130.517 57.7793)" fill="#4BB4E2"/>
<circle cx="3.62082" cy="3.62082" r="3.62082" transform="matrix(1 0 0 -1 196.898 57.7793)" fill="#4BB4E2"/>
<circle cx="3.62082" cy="3.62082" r="3.62082" transform="matrix(1 0 0 -1 130.517 41.165)" fill="#4BB4E2"/>
<circle cx="3.62082" cy="3.62082" r="3.62082" transform="matrix(1 0 0 -1 196.898 41.165)" fill="#4BB4E2"/>
<circle cx="3.62082" cy="3.62082" r="3.62082" transform="matrix(1 0 0 -1 130.517 24.5508)" fill="#4BB4E2"/>
<circle cx="3.62082" cy="3.62082" r="3.62082" transform="matrix(1 0 0 -1 196.898 24.5508)" fill="#4BB4E2"/>
<ellipse cx="3.62082" cy="3.62082" rx="3.62082" ry="3.62082" transform="matrix(1 0 0 -1 130.517 7.93652)" fill="#4BB4E2"/>
<ellipse cx="3.62082" cy="3.62082" rx="3.62082" ry="3.62082" transform="matrix(1 0 0 -1 196.898 7.93652)" fill="#4BB4E2"/>
</g>
</svg>
