<svg width="64" height="24" viewBox="0 0 64 24" fill="none" xmlns="http://www.w3.org/2000/svg">
<path opacity="0.5" d="M62 13.5C62.8284 13.5 63.5 12.8284 63.5 12C63.5 11.1716 62.8284 10.5 62 10.5V13.5ZM0.939342 10.9393C0.353554 11.5251 0.353554 12.4749 0.939342 13.0607L10.4853 22.6066C11.0711 23.1924 12.0208 23.1924 12.6066 22.6066C13.1924 22.0208 13.1924 21.0711 12.6066 20.4853L4.12132 12L12.6066 3.51472C13.1924 2.92893 13.1924 1.97919 12.6066 1.3934C12.0208 0.807611 11.0711 0.807611 10.4853 1.3934L0.939342 10.9393ZM62 10.5L2 10.5V13.5L62 13.5V10.5Z" fill="white"/>
</svg>
