<svg width="270" height="37" viewBox="0 0 270 37" fill="none" xmlns="http://www.w3.org/2000/svg">
<path d="M3.93719 8.16V9.68C3.93719 17.76 4.41719 26.16 11.5772 33H1.93719V4.2H12.6172L25.1372 29.04V27.52C25.1372 19.44 24.6572 11.04 17.4972 4.2H27.1372V33H16.4972L3.93719 8.16ZM30.0241 9.4H31.0241C33.9841 9.4 36.7041 9.12 39.2641 8.6V33H30.0241V9.4ZM29.2641 4.04C29.2641 2.16 31.6641 0.639999 34.6241 0.639999C37.5841 0.639999 40.0241 2.16 40.0241 4.04C40.0241 5.92 37.5841 7.44 34.6241 7.44C31.6641 7.44 29.2641 5.92 29.2641 4.04ZM42.0534 3H43.0534C46.0134 3 48.6934 2.72 51.2534 2.2V33H42.0534V3ZM75.0884 21.56C75.3284 22.56 75.4484 23.56 75.4484 24.56C75.4484 29.16 70.7684 33.4 64.4884 33.4C56.3284 33.4 53.0484 27.64 53.0484 21.6C53.0484 15.4 56.5284 8.6 64.9684 8.6C70.8884 8.6 73.8484 10.88 73.8484 13.44C73.8484 17.36 66.9684 21.24 63.5284 22.92C64.6084 24.44 66.0084 25.48 67.8084 25.48C70.5284 25.48 73.4084 24.08 75.0884 21.56ZM62.6884 21.52C64.0084 19.84 65.9684 16.76 65.9684 14.2C65.9684 12.12 64.6484 10.56 62.8884 10.56C61.5284 10.56 61.0084 11.52 61.0084 14.04C61.0084 16.28 61.5284 19.2 62.6884 21.52ZM76.7269 17.36C76.7269 14.08 80.8869 8.6 88.7669 8.6C94.7269 8.6 96.6069 11.04 96.6069 12.88C96.6069 14.8 94.5269 16.16 90.3269 16.64C89.9669 13.44 88.0869 10.52 86.3269 10.52C84.9669 10.52 84.4469 12.32 84.4469 13.16C84.4469 17.52 97.4069 18.96 97.4069 24.68C97.4069 27.96 93.1269 33.4 84.9669 33.4C79.2069 33.4 76.3269 30.56 76.3269 28.4C76.3269 26.56 78.4069 25.44 82.6069 25C82.9669 28.4 85.7669 31.48 87.6469 31.48C89.0469 31.48 89.6869 29.72 89.6869 28.56C89.6869 25.28 76.7269 23.12 76.7269 17.36ZM99.28 3H100.12C103.12 3 105.88 2.72 108.48 2.2V12.96C110.56 10.04 113.64 8.6 116.56 8.6C120.68 8.6 124.48 11.6 124.48 17.76V33H115.2V19.16C115.2 14.64 113.6 12.28 111.96 12.28C110.24 12.28 108.48 14.84 108.48 20.08V33H99.28V3ZM147.047 17.56H148.607C150.927 17.56 152.087 14.92 152.087 12.28C152.087 9.04 150.927 5.8 148.607 5.8H147.047V17.56ZM137.367 4.2H150.207C158.167 4.2 162.127 8.04 162.127 11.88C162.127 14.56 159.367 17.28 153.847 18.32C160.047 19.28 163.087 22.2 163.087 25.08C163.087 29.04 158.967 33 150.687 33H137.367V4.2ZM147.047 19.16V31.4H149.087C151.727 31.4 153.047 28.04 153.047 24.68C153.047 21.92 151.727 19.16 149.087 19.16H147.047ZM164.749 3H165.589C168.589 3 171.349 2.72 173.949 2.2V12.96C176.029 10.04 179.109 8.6 182.029 8.6C186.149 8.6 189.949 11.6 189.949 17.76V33H180.669V19.16C180.669 14.64 179.069 12.28 177.429 12.28C175.709 12.28 173.949 14.84 173.949 20.08V33H164.749V3ZM215.165 14.6V28.2C215.165 30.4 215.445 31.6 216.125 33H207.845C207.245 32.28 206.645 31.4 206.285 30.44C205.205 32.24 203.325 33.4 200.725 33.4C194.845 33.4 191.445 29.44 191.445 25.84C191.445 18.8 205.765 18.44 205.765 12.8C205.765 12 205.445 10.52 204.245 10.52C202.445 10.52 199.245 13.8 198.845 17.44C194.645 16.76 192.565 14.88 192.565 13.08C192.565 10.84 196.485 8.6 203.085 8.6C211.445 8.6 215.165 12 215.165 14.6ZM205.925 27.04V16.84C203.125 19.4 200.645 23.04 200.645 25.76C200.645 27.88 201.685 30.28 202.845 30.28C204.845 30.28 205.525 29.12 205.925 27.04ZM217.871 9.4H218.711C221.711 9.4 224.471 9.12 227.071 8.6V13.36C229.351 10.16 232.911 8.6 235.871 8.6C239.311 8.6 242.031 10.12 242.031 13.24C242.031 15.24 239.951 17.44 235.751 18.24C235.271 14.68 232.911 12.48 230.751 12.48C228.831 12.48 227.071 14.72 227.071 20.08V33H217.871V9.4ZM244.052 9V4.2H244.892C247.892 4.2 250.652 3.92 253.252 3.4V9H256.092V10.68H253.252V26.2C253.252 29.72 254.772 31.04 256.052 31.04V32.6C254.852 32.84 254.132 33 252.692 33C246.892 33 244.052 28.92 244.052 25.4V10.68H242.972V9H244.052ZM257.993 9.4H258.993C261.953 9.4 264.673 9.12 267.233 8.6V33H257.993V9.4ZM257.233 4.04C257.233 2.16 259.633 0.639999 262.593 0.639999C265.553 0.639999 267.993 2.16 267.993 4.04C267.993 5.92 265.553 7.44 262.593 7.44C259.633 7.44 257.233 5.92 257.233 4.04Z" fill="#044BB5"/>
</svg>
