<svg width="24" height="24" viewBox="0 0 24 24" fill="none" xmlns="http://www.w3.org/2000/svg">
<g clip-path="url(#clip0_1012_28)">
<mask id="mask0_1012_28" style="mask-type:luminance" maskUnits="userSpaceOnUse" x="0" y="0" width="24" height="24">
<path d="M0.19165 0.19165H23.8077V23.8077H0.19165V0.19165Z" fill="white"/>
</mask>
<g mask="url(#mask0_1012_28)">
<path d="M12 23.8079C8.86819 23.8079 5.865 22.5638 3.65062 20.3494C1.43615 18.1349 0.192139 15.1317 0.192139 12C0.192139 8.86819 1.43615 5.865 3.65062 3.65062C5.86509 1.43625 8.86828 0.192139 12 0.192139C15.1317 0.192139 18.135 1.43615 20.3494 3.65062C22.5638 5.86509 23.8079 8.86828 23.8079 12C23.8046 15.1305 22.5594 18.1322 20.3457 20.3456C18.132 22.5594 15.1304 23.8045 12.0001 23.8078L12 23.8079ZM12 2.16004C9.39019 2.16004 6.88734 3.19678 5.04187 5.04211C3.1964 6.88744 2.15981 9.39033 2.15981 12.0002C2.15981 14.6099 3.19654 17.1129 5.04187 18.9579C6.8872 20.8032 9.39009 21.84 12 21.84C14.6096 21.84 17.1127 20.8032 18.9577 18.9579C20.803 17.1126 21.8397 14.6097 21.8397 12.0002C21.837 9.39136 20.7993 6.88992 18.9545 5.04539C17.1097 3.20062 14.6085 2.16314 11.9997 2.16018L12 2.16004Z" fill="white"/>
</g>
<path d="M9.04774 17.529C8.78663 17.529 8.53652 17.4253 8.35193 17.2408C8.16733 17.0562 8.06372 16.8059 8.06372 16.545V7.45448C8.06372 7.10292 8.25122 6.77808 8.55572 6.60229C8.86004 6.42651 9.23522 6.42651 9.53972 6.60229L17.4119 11.1473L17.4117 11.1475C17.7162 11.3233 17.9037 11.6481 17.9037 11.9997C17.9037 12.3511 17.7162 12.6759 17.4117 12.8517L9.53954 17.3968L9.53972 17.3969C9.39012 17.4834 9.22038 17.5288 9.04772 17.5288L9.04774 17.529ZM10.0317 9.15897V14.8407L14.9517 12L10.0317 9.15897Z" fill="white"/>
</g>
<defs>
<clipPath id="clip0_1012_28">
<rect width="24" height="24" fill="white"/>
</clipPath>
</defs>
</svg>
