<svg width="24" height="25" viewBox="0 0 24 25" fill="none" xmlns="http://www.w3.org/2000/svg">
<g clip-path="url(#clip0_703_2)">
<mask id="mask0_703_2" style="mask-type:luminance" maskUnits="userSpaceOnUse" x="0" y="0" width="24" height="25">
<path d="M0.191406 0.196503H23.8075V24.4006H0.191406V0.196503Z" fill="white"/>
</mask>
<g mask="url(#mask0_703_2)">
<path d="M11.8079 24.2037C8.67605 24.2037 5.67286 22.9287 3.45848 20.6591C1.24402 18.3895 0 15.3115 0 12.1018C0 8.89205 1.24402 5.81409 3.45848 3.54459C5.67295 1.27508 8.67614 0 11.8079 0C14.9395 0 17.9429 1.27499 20.1572 3.54459C22.3717 5.81419 23.6157 8.89214 23.6157 12.1018C23.6157 15.3115 22.3717 18.3896 20.1572 20.6591C17.9428 22.9287 14.9396 24.2037 11.8079 24.2037ZM11.8079 2.0169C9.19805 2.0169 6.6952 3.07944 4.84973 4.97071C3.00427 6.86198 1.96767 9.42719 1.96767 12.1021C1.96767 14.7767 3.00441 17.342 4.84973 19.2329C6.69506 21.1242 9.19795 22.1868 11.8079 22.1868C14.4175 22.1868 16.9205 21.1242 18.7655 19.2329C20.6108 17.3417 21.6476 14.7765 21.6476 12.1021C21.6476 10.3316 21.1929 8.59255 20.3294 7.05958C19.4657 5.52637 18.2235 4.25325 16.7275 3.36822C15.2318 2.483 13.5349 2.01704 11.8075 2.01704L11.8079 2.0169Z" fill="white"/>
</g>
<path d="M7.984 18.096C7.8073 18.096 7.63409 18.0472 7.48211 17.9549C7.18328 17.7732 7 17.4437 7 17.0875V7.00252C7 6.64633 7.18329 6.31681 7.48211 6.13512C7.63171 6.04673 7.80145 6 7.97411 6C8.14678 6 8.31652 6.04673 8.46611 6.13512L17.3222 11.1776C17.5249 11.2955 17.6804 11.4833 17.7607 11.7076C17.8411 11.9318 17.8411 12.178 17.7607 12.4025C17.6804 12.6267 17.5249 12.8146 17.3222 12.9324L8.46611 17.9749C8.31816 18.0567 8.15208 18.0984 7.984 18.0958V18.096ZM8.968 8.71726V15.3735L14.8128 12.0455L8.968 8.71726Z" fill="white"/>
</g>
<defs>
<clipPath id="clip0_703_2">
<rect width="24" height="24.5975" fill="white"/>
</clipPath>
</defs>
</svg>
